<svg xmlns="http://www.w3.org/2000/svg" xmlns:xlink="http://www.w3.org/1999/xlink"><defs><style>
    .sprite-symbol-usage {display: none;}
    .sprite-symbol-usage:target {display: inline;}
  </style><symbol fill="none" viewBox="0 0 20 20" id="Applications_person_add"><g mask="url(#Applications_person_add_a)"><path d="M15.303 11.742a.731.731 0 0 1-.54-.218.731.731 0 0 1-.218-.54V9.47H13.03a.73.73 0 0 1-.54-.218.731.731 0 0 1-.217-.54c0-.215.072-.395.218-.54a.732.732 0 0 1 .54-.217h1.514V6.439c0-.214.073-.394.219-.54a.733.733 0 0 1 .539-.217c.215 0 .394.072.54.217a.733.733 0 0 1 .218.54v1.516h1.515c.214 0 .394.072.54.217a.733.733 0 0 1 .217.54.731.731 0 0 1-.218.54.73.73 0 0 1-.54.218h-1.514v1.515a.73.73 0 0 1-.219.54.73.73 0 0 1-.539.217Zm-7.576-1.515a2.918 2.918 0 0 1-2.14-.89 2.918 2.918 0 0 1-.89-2.14c0-.833.297-1.547.89-2.14a2.918 2.918 0 0 1 2.14-.89c.834 0 1.547.296 2.14.89.594.593.89 1.307.89 2.14 0 .833-.296 1.547-.89 2.14a2.918 2.918 0 0 1-2.14.89Zm-5.303 6.06a.731.731 0 0 1-.54-.217.73.73 0 0 1-.217-.54v-1.363c0-.43.11-.824.331-1.184.221-.36.515-.635.88-.824a11.266 11.266 0 0 1 2.387-.881 10.439 10.439 0 0 1 2.462-.293c.834 0 1.654.098 2.462.293.809.196 1.604.49 2.387.881.366.19.66.464.88.824.221.36.332.754.332 1.184v1.363a.731.731 0 0 1-.218.54.731.731 0 0 1-.54.218H2.424Z" fill="currentColor" /></g></symbol><mask id="Applications_person_add_a" style="mask-type:alpha" maskUnits="userSpaceOnUse" x="0" y="0" width="20" height="20"><path fill="#D9D9D9" d="M0 0h20v20H0z" /></mask><symbol viewBox="0 0 384 512" id="angle-double-left"><path d="M20.2 247.5 167 99.5c4.7-4.7 12.3-4.7 17 0l19.8 19.8c4.7 4.7 4.7 12.3 0 17L85.3 256l118.5 119.7c4.7 4.7 4.7 12.3 0 17L184 412.5c-4.7 4.7-12.3 4.7-17 0l-146.8-148c-4.7-4.7-4.7-12.3 0-17zm160 17 146.8 148c4.7 4.7 12.3 4.7 17 0l19.8-19.8c4.7-4.7 4.7-12.3 0-17L245.3 256l118.5-119.7c4.7-4.7 4.7-12.3 0-17L344 99.5c-4.7-4.7-12.3-4.7-17 0l-146.8 148c-4.7 4.7-4.7 12.3 0 17z" /></symbol><symbol viewBox="0 0 384 512" id="angle-double-right"><path d="M363.8 264.5 217 412.5c-4.7 4.7-12.3 4.7-17 0l-19.8-19.8c-4.7-4.7-4.7-12.3 0-17L298.7 256 180.2 136.3c-4.7-4.7-4.7-12.3 0-17L200 99.5c4.7-4.7 12.3-4.7 17 0l146.8 148c4.7 4.7 4.7 12.3 0 17zm-160-17L57 99.5c-4.7-4.7-12.3-4.7-17 0l-19.8 19.8c-4.7 4.7-4.7 12.3 0 17L138.7 256 20.2 375.7c-4.7 4.7-4.7 12.3 0 17L40 412.5c4.7 4.7 12.3 4.7 17 0l146.8-148c4.7-4.7 4.7-12.3 0-17z" /></symbol><symbol viewBox="0 0 320 512" id="angle-down"><path d="M151.5 347.8 3.5 201c-4.7-4.7-4.7-12.3 0-17l19.8-19.8c4.7-4.7 12.3-4.7 17 0L160 282.7l119.7-118.5c4.7-4.7 12.3-4.7 17 0l19.8 19.8c4.7 4.7 4.7 12.3 0 17l-148 146.8c-4.7 4.7-12.3 4.7-17 0z" /></symbol><symbol viewBox="0 0 192 512" id="angle-left"><path d="M4.2 247.5 151 99.5c4.7-4.7 12.3-4.7 17 0l19.8 19.8c4.7 4.7 4.7 12.3 0 17L69.3 256l118.5 119.7c4.7 4.7 4.7 12.3 0 17L168 412.5c-4.7 4.7-12.3 4.7-17 0L4.2 264.5c-4.7-4.7-4.7-12.3 0-17z" /></symbol><symbol viewBox="0 0 192 512" id="angle-right"><path d="M187.8 264.5 41 412.5c-4.7 4.7-12.3 4.7-17 0L4.2 392.7c-4.7-4.7-4.7-12.3 0-17L122.7 256 4.2 136.3c-4.7-4.7-4.7-12.3 0-17L24 99.5c4.7-4.7 12.3-4.7 17 0l146.8 148c4.7 4.7 4.7 12.3 0 17z" /></symbol><symbol viewBox="0 0 320 512" id="angle-up"><path d="m168.5 164.2 148 146.8c4.7 4.7 4.7 12.3 0 17l-19.8 19.8c-4.7 4.7-12.3 4.7-17 0L160 229.3 40.3 347.8c-4.7 4.7-12.3 4.7-17 0L3.5 328c-4.7-4.7-4.7-12.3 0-17l148-146.8c4.7-4.7 12.3-4.7 17 0z" /></symbol><symbol fill="none" viewBox="0 0 24 24" id="calender"><g mask="url(#calender_a)"><path d="M12 14a.965.965 0 0 1-.712-.288A.965.965 0 0 1 11 13c0-.283.096-.521.288-.713A.967.967 0 0 1 12 12a.97.97 0 0 1 .713.287A.97.97 0 0 1 13 13c0 .283-.096.52-.287.712A.968.968 0 0 1 12 14Zm-4 0a.968.968 0 0 1-.713-.288A.967.967 0 0 1 7 13a.97.97 0 0 1 .287-.713A.97.97 0 0 1 8 12a.97.97 0 0 1 .713.287A.97.97 0 0 1 9 13c0 .283-.096.52-.287.712A.968.968 0 0 1 8 14Zm8 0a.965.965 0 0 1-.712-.288A.965.965 0 0 1 15 13c0-.283.096-.521.288-.713A.967.967 0 0 1 16 12c.283 0 .52.096.712.287.192.192.288.43.288.713s-.096.52-.288.712A.965.965 0 0 1 16 14Zm-4 4a.965.965 0 0 1-.712-.288A.965.965 0 0 1 11 17c0-.283.096-.52.288-.712A.965.965 0 0 1 12 16c.283 0 .521.096.713.288A.967.967 0 0 1 13 17c0 .283-.096.52-.287.712A.968.968 0 0 1 12 18Zm-4 0a.968.968 0 0 1-.713-.288A.967.967 0 0 1 7 17c0-.283.096-.52.287-.712A.968.968 0 0 1 8 16c.283 0 .521.096.713.288A.967.967 0 0 1 9 17c0 .283-.096.52-.287.712A.968.968 0 0 1 8 18Zm8 0a.965.965 0 0 1-.712-.288A.965.965 0 0 1 15 17c0-.283.096-.52.288-.712A.965.965 0 0 1 16 16c.283 0 .52.096.712.288A.965.965 0 0 1 17 17c0 .283-.096.52-.288.712A.965.965 0 0 1 16 18ZM5 22c-.55 0-1.021-.196-1.413-.587A1.928 1.928 0 0 1 3 20V6c0-.55.196-1.02.587-1.412A1.927 1.927 0 0 1 5 4h1V3a.97.97 0 0 1 .287-.713A.97.97 0 0 1 7 2a.97.97 0 0 1 .713.287A.97.97 0 0 1 8 3v1h8V3c0-.283.096-.521.288-.713A.967.967 0 0 1 17 2c.283 0 .52.096.712.287.192.192.288.43.288.713v1h1c.55 0 1.021.196 1.413.588.391.391.587.862.587 1.412v14c0 .55-.196 1.021-.587 1.413A1.928 1.928 0 0 1 19 22H5Zm0-2h14V10H5v10Z" fill="currentColor" /></g></symbol><mask id="calender_a" style="mask-type:alpha" maskUnits="userSpaceOnUse" x="0" y="0" width="24" height="24"><path fill="#D9D9D9" d="M0 0h24v24H0z" /></mask><symbol fill="none" viewBox="0 0 20 20" id="chat"><g mask="url(#chat_a)"><path d="M5.833 11.667h5.021c.236 0 .43-.08.584-.24a.824.824 0 0 0 .229-.594.809.809 0 0 0-.24-.594.808.808 0 0 0-.594-.239h-5.02c-.237 0-.431.08-.584.24a.827.827 0 0 0-.229.593c0 .236.08.434.24.594.16.16.357.24.593.24Zm0-2.5h8.354c.237 0 .431-.08.584-.24A.824.824 0 0 0 15 8.333a.807.807 0 0 0-.24-.594.806.806 0 0 0-.593-.239H5.812c-.236 0-.43.08-.583.24A.827.827 0 0 0 5 8.332c0 .236.08.434.24.594.16.16.357.24.593.24Zm0-2.5h8.354c.237 0 .431-.08.584-.24A.827.827 0 0 0 15 5.833a.807.807 0 0 0-.24-.594.806.806 0 0 0-.593-.239H5.812c-.236 0-.43.08-.583.24A.827.827 0 0 0 5 5.832c0 .236.08.434.24.594.16.16.357.24.593.24Zm-4.166 9.646V3.332c0-.458.163-.85.49-1.177.326-.326.718-.49 1.176-.49h13.334c.458 0 .85.164 1.177.49.326.326.49.719.49 1.177v10c0 .459-.164.851-.49 1.178-.327.326-.719.489-1.177.489H5l-1.917 1.917c-.264.263-.566.322-.906.176-.34-.145-.51-.405-.51-.78Z" fill="#667085" /></g></symbol><mask id="chat_a" style="mask-type:alpha" maskUnits="userSpaceOnUse" x="0" y="0" width="20" height="20"><path fill="#D9D9D9" d="M0 0h20v20H0z" /></mask><symbol fill="none" viewBox="0 0 16 16" id="check"><circle cx="8" cy="8" r="7.5" stroke="currentColor" /><path d="M11.355 5.605a.5.5 0 0 0-.71 0L6.92 9.335l-1.565-1.57a.511.511 0 0 0-.71.735l1.92 1.92a.498.498 0 0 0 .71 0l4.08-4.08a.5.5 0 0 0 0-.735Z" fill="currentColor" /></symbol><symbol fill="none" viewBox="0 0 12 12" id="close"><path d="M9 3 3 9M3 3l6 6" stroke="currentColor" stroke-linecap="round" stroke-linejoin="round" /></symbol><symbol fill="none" viewBox="0 0 20 20" id="copy"><g mask="url(#copy_a)"><path d="M8.579 14.5c-.405 0-.751-.147-1.039-.44A1.46 1.46 0 0 1 7.108 13V4c0-.413.144-.766.432-1.06.288-.293.634-.44 1.039-.44h6.617c.405 0 .75.147 1.04.44.287.294.43.647.43 1.06v9c0 .412-.143.766-.43 1.06-.29.293-.635.44-1.04.44H8.58Zm-2.942 3c-.404 0-.75-.147-1.039-.44A1.46 1.46 0 0 1 4.167 16V6.25c0-.213.07-.39.212-.535a.704.704 0 0 1 .523-.215c.208 0 .383.072.524.215.141.144.211.322.211.535V16h7.353a.733.733 0 0 1 .735.75.733.733 0 0 1-.735.75H5.637Z" fill="#475467" /></g></symbol><mask id="copy_a" style="mask-type:alpha" maskUnits="userSpaceOnUse" x="0" y="0" width="20" height="20"><path fill="#D9D9D9" d="M0 0h20v20H0z" /></mask><symbol fill="none" viewBox="0 0 24 24" id="dashboard"><g mask="url(#dashboard_a)"><path d="M13 8V4c0-.283.096-.521.288-.713A.967.967 0 0 1 14 3h6c.283 0 .52.096.712.287.192.192.288.43.288.713v4c0 .283-.096.52-.288.712A.965.965 0 0 1 20 9h-6a.965.965 0 0 1-.712-.288A.965.965 0 0 1 13 8ZM3 12V4c0-.283.096-.521.288-.713A.967.967 0 0 1 4 3h6a.97.97 0 0 1 .713.287A.97.97 0 0 1 11 4v8c0 .283-.096.52-.287.712A.968.968 0 0 1 10 13H4a.965.965 0 0 1-.712-.288A.965.965 0 0 1 3 12Zm10 8v-8c0-.283.096-.521.288-.713A.967.967 0 0 1 14 11h6c.283 0 .52.096.712.287.192.192.288.43.288.713v8c0 .283-.096.52-.288.712A.965.965 0 0 1 20 21h-6a.965.965 0 0 1-.712-.288A.965.965 0 0 1 13 20ZM3 20v-4c0-.283.096-.521.288-.713A.967.967 0 0 1 4 15h6a.97.97 0 0 1 .713.287A.97.97 0 0 1 11 16v4c0 .283-.096.52-.287.712A.968.968 0 0 1 10 21H4a.965.965 0 0 1-.712-.288A.965.965 0 0 1 3 20Z" fill="currentColor" /></g></symbol><mask id="dashboard_a" style="mask-type:alpha" maskUnits="userSpaceOnUse" x="0" y="0" width="24" height="24"><path fill="#D9D9D9" d="M0 0h24v24H0z" /></mask><symbol fill="none" viewBox="0 0 16 18" id="delete"><path d="M3 18c-.55 0-1.02-.196-1.412-.587A1.927 1.927 0 0 1 1 16V3a.97.97 0 0 1-.713-.287A.97.97 0 0 1 0 2a.97.97 0 0 1 .287-.713A.97.97 0 0 1 1 1h4c0-.283.096-.521.288-.713A.967.967 0 0 1 6 0h4a.97.97 0 0 1 .713.287A.97.97 0 0 1 11 1h4c.283 0 .52.096.712.287.192.192.288.43.288.713a.968.968 0 0 1-.288.713A.967.967 0 0 1 15 3v13c0 .55-.196 1.021-.587 1.413A1.928 1.928 0 0 1 13 18H3Zm2-5c0 .283.096.52.288.712A.965.965 0 0 0 6 14a.968.968 0 0 0 .713-.288A.967.967 0 0 0 7 13V6a.97.97 0 0 0-.287-.713A.97.97 0 0 0 6 5a.967.967 0 0 0-.712.287A.968.968 0 0 0 5 6v7Zm4 0c0 .283.096.52.288.712A.965.965 0 0 0 10 14a.968.968 0 0 0 .713-.288A.967.967 0 0 0 11 13V6a.97.97 0 0 0-.287-.713A.97.97 0 0 0 10 5a.967.967 0 0 0-.712.287A.968.968 0 0 0 9 6v7Z" fill="currentColor" /></symbol><symbol fill="none" viewBox="0 0 21 20" id="download"><g mask="url(#download_a)"><path d="M5.917 16.667c-1.264 0-2.344-.438-3.24-1.313-.896-.875-1.344-1.944-1.344-3.208 0-1.084.327-2.049.98-2.896a4.331 4.331 0 0 1 2.562-1.625 5.808 5.808 0 0 1 1.782-2.833 5.718 5.718 0 0 1 3.01-1.396v6.729l-.75-.73a.777.777 0 0 0-.573-.228.812.812 0 0 0-.594.25.79.79 0 0 0-.23.583c0 .236.077.43.23.583l2.167 2.167a.8.8 0 0 0 .583.25.8.8 0 0 0 .583-.25l2.167-2.167a.816.816 0 0 0 .24-.573.776.776 0 0 0-.24-.593.815.815 0 0 0-.572-.24.813.813 0 0 0-.595.219l-.75.729v-6.73c1.43.195 2.622.838 3.574 1.928.95 1.09 1.426 2.371 1.426 3.844a3.64 3.64 0 0 1 2.386 1.239c.632.715.948 1.552.948 2.51 0 1.042-.365 1.928-1.094 2.657-.73.73-1.615 1.094-2.656 1.094h-10Z" fill="#475467" /></g></symbol><mask id="download_a" style="mask-type:alpha" maskUnits="userSpaceOnUse" x="0" y="0" width="21" height="20"><path fill="#D9D9D9" d="M.5 0h20v20H.5z" /></mask><symbol fill="none" viewBox="0 0 19 19" id="edit"><path d="m16.3 6.925-4.25-4.2 1.4-1.4A1.92 1.92 0 0 1 14.863.75a1.92 1.92 0 0 1 1.412.575l1.4 1.4c.383.383.583.846.6 1.388a1.806 1.806 0 0 1-.55 1.387L16.3 6.925ZM1 19a.965.965 0 0 1-.712-.288A.965.965 0 0 1 0 18v-2.825a1.03 1.03 0 0 1 .3-.725l10.3-10.3 4.25 4.25-10.3 10.3a1 1 0 0 1-.725.3H1Z" fill="currentColor" /></symbol><symbol viewBox="0 0 24 24" id="facebook"><path d="M19.5 0c1.24 0 2.3.44 3.18 1.32S24 3.26 24 4.5v15c0 1.24-.44 2.3-1.32 3.18S20.74 24 19.5 24h-2.938v-9.297h3.11l.469-3.625h-3.578V8.766c0-.584.122-1.021.367-1.313.244-.292.721-.437 1.43-.437L20.265 7V3.766c-.657-.094-1.584-.141-2.782-.141-1.416 0-2.55.417-3.398 1.25s-1.274 2.01-1.274 3.531v2.672H9.688v3.625h3.124V24H4.5c-1.24 0-2.3-.44-3.18-1.32S0 20.74 0 19.5v-15c0-1.24.44-2.3 1.32-3.18S3.26 0 4.5 0z" /></symbol><symbol fill="none" viewBox="0 0 24 24" id="finance"><g mask="url(#finance_a)"><path d="M12 23c-1.867 0-3.583-.425-5.15-1.275a11.144 11.144 0 0 1-3.85-3.4V20c0 .283-.096.52-.287.712A.968.968 0 0 1 2 21a.965.965 0 0 1-.712-.288A.965.965 0 0 1 1 20v-4c0-.283.096-.521.288-.713A.967.967 0 0 1 2 15h4a.97.97 0 0 1 .713.287A.97.97 0 0 1 7 16c0 .283-.096.52-.287.712A.968.968 0 0 1 6 17H4.525c.8 1.2 1.854 2.167 3.163 2.9C8.996 20.633 10.433 21 12 21c2.333 0 4.346-.767 6.038-2.3 1.691-1.533 2.662-3.433 2.912-5.7.033-.283.146-.521.338-.713A.967.967 0 0 1 22 12c.283 0 .52.1.712.3a.82.82 0 0 1 .238.7 10.398 10.398 0 0 1-1.112 3.925 11.329 11.329 0 0 1-2.4 3.175c-.975.9-2.1 1.608-3.376 2.125A10.71 10.71 0 0 1 12 23ZM2 12c-.283 0-.52-.1-.712-.3a.82.82 0 0 1-.238-.7c.133-1.4.508-2.708 1.125-3.925A11.128 11.128 0 0 1 4.562 3.9c.975-.9 2.1-1.608 3.376-2.125A10.71 10.71 0 0 1 12 1c1.867 0 3.583.425 5.15 1.275 1.567.85 2.85 1.983 3.85 3.4V4c0-.283.096-.521.288-.713A.967.967 0 0 1 22 3c.283 0 .52.096.712.287.192.192.288.43.288.713v4c0 .283-.096.52-.288.712A.965.965 0 0 1 22 9h-4a.965.965 0 0 1-.712-.288A.965.965 0 0 1 17 8c0-.283.096-.521.288-.713A.967.967 0 0 1 18 7h1.475c-.8-1.2-1.854-2.167-3.163-2.9C15.004 3.367 13.567 3 12 3c-2.333 0-4.346.767-6.037 2.3C4.271 6.833 3.3 8.733 3.05 11a1.17 1.17 0 0 1-.337.712A.968.968 0 0 1 2 12Zm9.975 7a.839.839 0 0 1-.612-.262.84.84 0 0 1-.263-.613V17.7c-.633-.133-1.175-.38-1.625-.738A3.813 3.813 0 0 1 8.4 15.575a.768.768 0 0 1 .013-.675.87.87 0 0 1 .512-.475.877.877 0 0 1 .65 0c.217.083.392.242.525.475.233.417.525.729.875.937.35.209.742.313 1.175.313.55 0 1.02-.13 1.412-.388.392-.258.588-.662.588-1.212 0-.483-.204-.875-.612-1.175-.409-.3-1.138-.642-2.188-1.025-.983-.35-1.704-.767-2.162-1.25-.459-.483-.688-1.117-.688-1.9 0-.683.233-1.3.7-1.85.467-.55 1.117-.917 1.95-1.1v-.375a.84.84 0 0 1 .263-.613.839.839 0 0 1 .612-.262c.233 0 .437.087.612.262a.84.84 0 0 1 .263.613v.375c.45.033.871.183 1.263.45.391.267.72.592.987.975.133.2.154.42.063.662a.867.867 0 0 1-.513.513.754.754 0 0 1-.587.013 1.318 1.318 0 0 1-.563-.413 1.781 1.781 0 0 0-.625-.475 2.05 2.05 0 0 0-.875-.175c-.583 0-1.029.125-1.337.375-.309.25-.463.592-.463 1.025 0 .433.192.775.575 1.025.383.25 1.075.542 2.075.875 1.2.433 2 .942 2.4 1.525.4.583.6 1.225.6 1.925 0 .983-.3 1.725-.9 2.225-.6.5-1.317.825-2.15.975v.375a.842.842 0 0 1-.262.613.842.842 0 0 1-.613.262Z" fill="currentColor" /></g></symbol><mask id="finance_a" style="mask-type:alpha" maskUnits="userSpaceOnUse" x="0" y="0" width="24" height="24"><path fill="#D9D9D9" d="M0 0h24v24H0z" /></mask><symbol fill="none" viewBox="0 0 20 20" id="group"><g mask="url(#group_a)"><path d="M1.667 16.667a.804.804 0 0 1-.594-.24.804.804 0 0 1-.24-.594v-1.5c0-.472.122-.906.365-1.302s.566-.698.969-.906c.86-.43 1.736-.754 2.625-.97a11.48 11.48 0 0 1 2.708-.322c.917 0 1.82.108 2.708.323.89.215 1.764.538 2.625.969.403.208.726.51.969.906s.365.83.365 1.302v1.5c0 .237-.08.434-.24.594a.804.804 0 0 1-.594.24H1.667Zm13.77 0a.999.999 0 0 0 .292-.365c.07-.146.104-.309.104-.49v-1.645c0-.611-.17-1.198-.51-1.761-.34-.562-.823-1.045-1.448-1.448a10.452 10.452 0 0 1 3.75 1.167c.5.278.882.587 1.146.927.264.34.396.712.396 1.115v1.666c0 .237-.08.434-.24.594a.804.804 0 0 1-.594.24h-2.895ZM7.5 10a3.21 3.21 0 0 1-2.354-.98 3.21 3.21 0 0 1-.98-2.353c0-.917.327-1.702.98-2.354a3.21 3.21 0 0 1 2.354-.98 3.21 3.21 0 0 1 2.354.98 3.21 3.21 0 0 1 .98 2.354 3.21 3.21 0 0 1-.98 2.354A3.21 3.21 0 0 1 7.5 10Zm8.333-3.333a3.21 3.21 0 0 1-.979 2.354A3.21 3.21 0 0 1 12.5 10c-.153 0-.347-.017-.583-.052a5.153 5.153 0 0 1-.584-.115c.375-.444.663-.937.864-1.479a4.797 4.797 0 0 0 .303-1.687c0-.584-.1-1.146-.303-1.688a4.948 4.948 0 0 0-.864-1.479 2.55 2.55 0 0 1 .584-.136c.194-.02.389-.03.583-.03a3.21 3.21 0 0 1 2.354.979 3.21 3.21 0 0 1 .98 2.354Z" fill="currentColor" /></g></symbol><mask id="group_a" style="mask-type:alpha" maskUnits="userSpaceOnUse" x="0" y="0" width="20" height="20"><path fill="#D9D9D9" d="M0 0h20v20H0z" /></mask><symbol fill="none" viewBox="0 0 20 20" id="group_add"><g mask="url(#group_add_a)"><path d="M10.417 9.958c.402-.444.712-.951.927-1.52.215-.57.323-1.16.323-1.771s-.108-1.202-.323-1.771a4.747 4.747 0 0 0-.927-1.521c.833.111 1.527.48 2.083 1.104a3.19 3.19 0 0 1 .833 2.188 3.19 3.19 0 0 1-.833 2.187 3.282 3.282 0 0 1-2.083 1.104Zm4.187 6.709a.998.998 0 0 0 .292-.365c.07-.146.104-.309.104-.49v-1.645c0-.5-.111-.976-.333-1.427a4.257 4.257 0 0 0-.875-1.198c.708.25 1.364.572 1.969.968.604.396.906.948.906 1.657v1.666c0 .236-.08.434-.24.594a.804.804 0 0 1-.594.24h-1.229Zm2.896-5.834a.804.804 0 0 1-.593-.24.804.804 0 0 1-.24-.593v-.833h-.834a.804.804 0 0 1-.593-.24.804.804 0 0 1-.24-.594c0-.236.08-.434.24-.594.16-.16.357-.239.593-.239h.834v-.833c0-.236.08-.434.24-.595.16-.159.357-.239.593-.239s.434.08.593.24c.16.16.24.358.24.594V7.5h.834c.236 0 .434.08.593.24.16.16.24.357.24.593s-.08.434-.24.594a.804.804 0 0 1-.593.24h-.834V10c0 .236-.08.434-.24.593a.804.804 0 0 1-.593.24ZM6.667 10a3.21 3.21 0 0 1-2.354-.98 3.21 3.21 0 0 1-.98-2.353c0-.917.327-1.702.98-2.354a3.21 3.21 0 0 1 2.354-.98 3.21 3.21 0 0 1 2.354.98A3.21 3.21 0 0 1 10 6.667a3.21 3.21 0 0 1-.98 2.354A3.21 3.21 0 0 1 6.668 10ZM.833 16.667a.804.804 0 0 1-.593-.24.804.804 0 0 1-.24-.594v-1.5c0-.472.122-.906.365-1.302s.566-.698.968-.906c.861-.43 1.736-.754 2.625-.97a11.48 11.48 0 0 1 2.709-.322c.916 0 1.82.108 2.708.323.889.215 1.764.538 2.625.969.403.208.726.51.968.906.244.396.365.83.365 1.302v1.5c0 .236-.08.434-.239.594a.807.807 0 0 1-.594.24H.833Z" fill="currentColor" /></g></symbol><mask id="group_add_a" style="mask-type:alpha" maskUnits="userSpaceOnUse" x="0" y="0" width="20" height="20"><path fill="#D9D9D9" d="M0 0h20v20H0z" /></mask><symbol fill="none" viewBox="0 0 24 24" id="inspections"><g mask="url(#inspections_a)"><path d="M8 12h5.025a.926.926 0 0 0 .7-.288A.99.99 0 0 0 14 11a.97.97 0 0 0-.287-.713A.97.97 0 0 0 13 10H7.975a.928.928 0 0 0-.7.287A.993.993 0 0 0 7 11c0 .283.096.52.287.712.192.192.43.288.713.288Zm0-3h5.025a.926.926 0 0 0 .7-.288A.99.99 0 0 0 14 8a.97.97 0 0 0-.287-.713A.97.97 0 0 0 13 7H7.975a.928.928 0 0 0-.7.287A.993.993 0 0 0 7 8c0 .283.096.52.287.712.192.192.43.288.713.288Zm0 6h1.025a.926.926 0 0 0 .7-.288A.99.99 0 0 0 10 14a.97.97 0 0 0-.287-.713A.97.97 0 0 0 9 13H7.975a.928.928 0 0 0-.7.287A.993.993 0 0 0 7 14c0 .283.096.52.287.712.192.192.43.288.713.288Zm4 7a9.733 9.733 0 0 1-3.9-.788 10.092 10.092 0 0 1-3.175-2.137c-.9-.9-1.612-1.958-2.137-3.175A9.733 9.733 0 0 1 2 12c0-1.383.263-2.683.788-3.9a10.092 10.092 0 0 1 2.137-3.175c.9-.9 1.958-1.613 3.175-2.138A9.743 9.743 0 0 1 12 2c1.383 0 2.683.262 3.9.787a10.105 10.105 0 0 1 3.175 2.138c.9.9 1.612 1.958 2.137 3.175A9.733 9.733 0 0 1 22 12a9.733 9.733 0 0 1-.788 3.9 10.092 10.092 0 0 1-2.137 3.175c-.9.9-1.958 1.612-3.175 2.137A9.733 9.733 0 0 1 12 22Zm2.05-6.45-.7-.7c-.2-.2-.437-.304-.712-.313a.933.933 0 0 0-.713.288c-.2.2-.3.437-.3.712 0 .275.1.513.3.713l1.425 1.425c.2.2.433.3.7.3.267 0 .5-.1.7-.3l3.575-3.575c.2-.2.296-.433.288-.7a1.008 1.008 0 0 0-.313-.7c-.2-.183-.433-.28-.7-.288a.918.918 0 0 0-.7.288l-2.85 2.85Z" fill="currentColor" /></g></symbol><mask id="inspections_a" style="mask-type:alpha" maskUnits="userSpaceOnUse" x="0" y="0" width="24" height="24"><path fill="#D9D9D9" d="M0 0h24v24H0z" /></mask><symbol fill="none" viewBox="0 0 24 24" id="inventory"><g mask="url(#inventory_a)"><path d="M3 20V8.7a2.472 2.472 0 0 1-.712-.7A1.74 1.74 0 0 1 2 7V4c0-.55.196-1.021.588-1.413A1.925 1.925 0 0 1 4 2h16c.55 0 1.021.196 1.413.587.391.392.587.863.587 1.413v3c0 .383-.096.717-.288 1a2.472 2.472 0 0 1-.712.7V20c0 .55-.196 1.021-.587 1.413A1.928 1.928 0 0 1 19 22H5c-.55 0-1.021-.196-1.413-.587A1.928 1.928 0 0 1 3 20ZM20 7V4H4v3h16ZM9 14h6v-2H9v2Z" fill="currentColor" /></g></symbol><mask id="inventory_a" style="mask-type:alpha" maskUnits="userSpaceOnUse" x="0" y="0" width="24" height="24"><path fill="#D9D9D9" d="M0 0h24v24H0z" /></mask><symbol fill="none" viewBox="0 0 24 24" id="leases"><g mask="url(#leases_a)"><path d="M7 9.2h3.5a.728.728 0 0 0 .75-.75.731.731 0 0 0-.212-.538.731.731 0 0 0-.538-.212H7a.728.728 0 0 0-.75.75.726.726 0 0 0 .75.75Zm6.75 8.05h3.5c.217 0 .396-.07.538-.212A.731.731 0 0 0 18 16.5a.728.728 0 0 0-.75-.75h-3.5a.726.726 0 0 0-.75.75.728.728 0 0 0 .75.75Zm0-2.5h3.5A.728.728 0 0 0 18 14a.731.731 0 0 0-.212-.538.731.731 0 0 0-.538-.212h-3.5A.728.728 0 0 0 13 14a.726.726 0 0 0 .75.75Zm-5 3.25c.217 0 .396-.07.538-.212a.731.731 0 0 0 .212-.538V16h1.25a.728.728 0 0 0 .75-.75.731.731 0 0 0-.212-.538.731.731 0 0 0-.538-.212H9.5v-1.25a.731.731 0 0 0-.212-.538.731.731 0 0 0-.538-.212.728.728 0 0 0-.75.75v1.25H6.75a.728.728 0 0 0-.75.75.726.726 0 0 0 .75.75H8v1.25a.728.728 0 0 0 .75.75Zm4.825-7.575a.72.72 0 0 0 .525.225.72.72 0 0 0 .525-.225l.875-.875.9.9c.133.133.3.2.5.2a.72.72 0 0 0 .525-.225.695.695 0 0 0 .2-.513.781.781 0 0 0-.2-.537l-.875-.925.9-.9c.133-.133.2-.3.2-.5a.72.72 0 0 0-.225-.525.72.72 0 0 0-.525-.225.72.72 0 0 0-.525.225L15.5 7.4l-.9-.9a.678.678 0 0 0-.5-.2.72.72 0 0 0-.525.225.72.72 0 0 0-.225.525c0 .2.075.375.225.525l.875.875-.9.925a.766.766 0 0 0-.2.525c0 .2.075.375.225.525ZM5 21c-.55 0-1.021-.196-1.413-.587A1.928 1.928 0 0 1 3 19V5c0-.55.196-1.021.587-1.413A1.928 1.928 0 0 1 5 3h14c.55 0 1.021.196 1.413.587.391.392.587.863.587 1.413v14c0 .55-.196 1.021-.587 1.413A1.928 1.928 0 0 1 19 21H5Z" fill="currentColor" /></g></symbol><mask id="leases_a" style="mask-type:alpha" maskUnits="userSpaceOnUse" x="0" y="0" width="24" height="24"><path fill="#D9D9D9" d="M0 0h24v24H0z" /></mask><symbol viewBox="0 0 24 24" id="linkedin"><path d="M3.703 20.094h3.61V9.25h-3.61zM7.547 5.906c-.01-.541-.198-.99-.563-1.343s-.849-.532-1.453-.532-1.096.177-1.476.532-.57.802-.57 1.343c0 .532.184.977.554 1.336s.852.54 1.445.54H5.5c.615 0 1.11-.18 1.484-.54.375-.36.563-.804.563-1.336zm5.36 4.873V9.25h-3.61c.031.688.031 4.302 0 10.844h3.61V14.03c0-.396.036-.687.109-.875.156-.364.39-.674.703-.93s.698-.382 1.156-.382c1.208 0 1.813.817 1.813 2.453v5.797h3.609v-6.219c0-1.604-.38-2.818-1.14-3.64C18.395 9.41 17.39 9 16.14 9c-1.398 0-2.476.593-3.235 1.779zM24 4.5v15c0 1.24-.44 2.3-1.32 3.18S20.74 24 19.5 24h-15c-1.24 0-2.3-.44-3.18-1.32S0 20.74 0 19.5v-15c0-1.24.44-2.3 1.32-3.18S3.26 0 4.5 0h15c1.24 0 2.3.44 3.18 1.32S24 3.26 24 4.5z" /></symbol><symbol fill="none" viewBox="0 0 18 18" id="logout"><g mask="url(#logout_a)"><path d="M11.494 12.206a.833.833 0 0 1-.207-.553c0-.206.07-.378.207-.516L12.88 9.75H7.5a.724.724 0 0 1-.534-.216A.724.724 0 0 1 6.75 9c0-.213.072-.39.216-.535A.725.725 0 0 1 7.5 8.25h5.381l-1.387-1.388a.73.73 0 0 1-.225-.534.73.73 0 0 1 .225-.534.671.671 0 0 1 .516-.225c.206 0 .377.069.515.206l2.7 2.7a.662.662 0 0 1 .16.244.836.836 0 0 1 .046.281c0 .1-.015.194-.046.281a.662.662 0 0 1-.16.244l-2.7 2.7c-.162.162-.34.234-.534.215a.789.789 0 0 1-.497-.234ZM3.75 15.75c-.413 0-.766-.147-1.06-.44a1.446 1.446 0 0 1-.44-1.06V3.75c0-.413.147-.766.44-1.06.294-.293.647-.44 1.06-.44h4.5c.213 0 .39.072.535.215A.728.728 0 0 1 9 3c0 .212-.072.39-.215.534a.726.726 0 0 1-.535.216h-4.5v10.5h4.5c.213 0 .39.072.535.216A.725.725 0 0 1 9 15c0 .213-.072.39-.215.534a.726.726 0 0 1-.535.216h-4.5Z" fill="#fff" /></g></symbol><mask id="logout_a" style="mask-type:alpha" maskUnits="userSpaceOnUse" x="0" y="0" width="18" height="18"><path fill="#D9D9D9" d="M0 0h18v18H0z" /></mask><symbol fill="none" viewBox="0 0 20 20" id="message-icon"><path d="M10 20c5.523 0 10-4.477 10-10S15.523 0 10 0 0 4.477 0 10s4.477 10 10 10Z" fill="#E3E2FF" /></symbol><symbol fill="none" viewBox="0 0 16 16" id="minus-circle"><path d="M8 14.667A6.667 6.667 0 1 0 8 1.333a6.667 6.667 0 0 0 0 13.334Z" stroke="currentColor" stroke-linecap="round" stroke-linejoin="round" /><path d="M5.333 8h5.334" stroke="#fff" stroke-linecap="round" stroke-linejoin="round" /></symbol><symbol fill="none" viewBox="0 0 18 18" id="open_in_new"><path d="M2 18c-.55 0-1.021-.196-1.413-.587A1.928 1.928 0 0 1 0 16V2C0 1.45.196.979.587.587A1.928 1.928 0 0 1 2 0h6a.97.97 0 0 1 .713.287A.97.97 0 0 1 9 1c0 .283-.096.52-.287.712A.968.968 0 0 1 8 2H2v14h14v-6c0-.283.096-.521.288-.713A.967.967 0 0 1 17 9c.283 0 .52.096.712.287.192.192.288.43.288.713v6c0 .55-.196 1.021-.587 1.413A1.928 1.928 0 0 1 16 18H2Zm4-6a.948.948 0 0 1-.275-.7c0-.283.092-.517.275-.7L14.6 2H12a.965.965 0 0 1-.712-.288A.965.965 0 0 1 11 1c0-.283.096-.521.288-.713A.967.967 0 0 1 12 0h5c.283 0 .52.096.712.287.192.192.288.43.288.713v5c0 .283-.096.52-.288.712A.965.965 0 0 1 17 7a.965.965 0 0 1-.712-.288A.965.965 0 0 1 16 6V3.4l-8.625 8.625a.918.918 0 0 1-.675.275.96.96 0 0 1-.7-.3Z" fill="currentColor" /></symbol><symbol fill="none" viewBox="0 0 24 24" id="owners"><g mask="url(#owners_a)"><path d="M5.85 17.1c.85-.65 1.8-1.163 2.85-1.538A9.744 9.744 0 0 1 12 15c1.15 0 2.25.187 3.3.562 1.05.375 2 .888 2.85 1.538a7.737 7.737 0 0 0 1.363-2.325A7.845 7.845 0 0 0 20 12c0-2.217-.779-4.104-2.337-5.663C16.104 4.779 14.217 4 12 4s-4.104.779-5.662 2.337C4.779 7.896 4 9.783 4 12c0 .983.163 1.908.488 2.775A7.72 7.72 0 0 0 5.85 17.1ZM12 13c-.983 0-1.813-.337-2.488-1.012S8.5 10.483 8.5 9.5c0-.983.337-1.813 1.012-2.488S11.017 6 12 6c.983 0 1.813.337 2.488 1.012S15.5 8.517 15.5 9.5c0 .983-.337 1.813-1.012 2.488S12.983 13 12 13Zm0 9a9.733 9.733 0 0 1-3.9-.788 10.092 10.092 0 0 1-3.175-2.137c-.9-.9-1.612-1.958-2.137-3.175A9.733 9.733 0 0 1 2 12c0-1.383.263-2.683.788-3.9a10.092 10.092 0 0 1 2.137-3.175c.9-.9 1.958-1.613 3.175-2.138A9.743 9.743 0 0 1 12 2c1.383 0 2.683.262 3.9.787a10.105 10.105 0 0 1 3.175 2.138c.9.9 1.612 1.958 2.137 3.175A9.733 9.733 0 0 1 22 12a9.733 9.733 0 0 1-.788 3.9 10.092 10.092 0 0 1-2.137 3.175c-.9.9-1.958 1.612-3.175 2.137A9.733 9.733 0 0 1 12 22Z" fill="currentColor" /></g></symbol><mask id="owners_a" style="mask-type:alpha" maskUnits="userSpaceOnUse" x="0" y="0" width="24" height="24"><path fill="#D9D9D9" d="M0 0h24v24H0z" /></mask><symbol fill="none" viewBox="0 0 16 16" id="plus-circle"><path d="M8 14.667A6.667 6.667 0 1 0 8 1.333a6.667 6.667 0 0 0 0 13.334ZM5.333 8h5.334M8 10.667V5.333" stroke="currentColor" stroke-linecap="round" stroke-linejoin="round" /></symbol><symbol fill="#fff" viewBox="0 0 18 18" id="plus-circle-2"><path d="M9 17A8 8 0 1 0 9 1a8 8 0 0 0 0 16Z" stroke="currentColor" stroke-linecap="round" stroke-linejoin="round" /><path d="M9 5v8M5 9h8" stroke="#413ACC" stroke-linecap="round" stroke-linejoin="round" /></symbol><symbol fill="none" viewBox="0 0 24 24" id="properties"><g mask="url(#properties_a)"><path d="M4 21a.965.965 0 0 1-.712-.288A.965.965 0 0 1 3 20c0-.283.096-.52.288-.712A.965.965 0 0 1 4 19h1V4a.97.97 0 0 1 .287-.713A.97.97 0 0 1 6 3h7a.97.97 0 0 1 .713.287A.97.97 0 0 1 14 4h4c.283 0 .52.096.712.287.192.192.288.43.288.713v14h1c.283 0 .52.096.712.288A.965.965 0 0 1 21 20c0 .283-.096.52-.288.712A.965.965 0 0 1 20 21h-2a.965.965 0 0 1-.712-.288A.965.965 0 0 1 17 20V6h-3v14c0 .283-.096.52-.287.712A.968.968 0 0 1 13 21H4Zm8-9a.97.97 0 0 0-.287-.713A.97.97 0 0 0 11 11a.967.967 0 0 0-.712.287A.968.968 0 0 0 10 12c0 .283.096.52.288.712A.965.965 0 0 0 11 13a.968.968 0 0 0 .713-.288A.967.967 0 0 0 12 12Z" fill="currentColor" /></g></symbol><mask id="properties_a" style="mask-type:alpha" maskUnits="userSpaceOnUse" x="0" y="0" width="24" height="24"><path fill="#D9D9D9" d="M0 0h24v24H0z" /></mask><symbol fill="none" viewBox="0 0 20 20" id="property_manager"><g mask="url(#property_manager_a)"><path d="M14.167 12.5a2.012 2.012 0 0 1-1.48-.604 2.011 2.011 0 0 1-.604-1.48c0-.583.202-1.076.604-1.478a2.012 2.012 0 0 1 1.48-.605c.583 0 1.076.202 1.479.605.403.402.604.895.604 1.479 0 .583-.201 1.076-.604 1.479a2.012 2.012 0 0 1-1.48.604Zm-3.334 4.167a.804.804 0 0 1-.593-.24.804.804 0 0 1-.24-.594V15.5c0-.333.087-.642.26-.927.174-.285.42-.49.74-.615a7.985 7.985 0 0 1 1.553-.468 8.4 8.4 0 0 1 3.229 0c.534.104 1.051.26 1.551.468.32.125.566.33.74.615.174.285.26.594.26.927v.333c0 .237-.08.434-.24.594a.804.804 0 0 1-.593.24h-6.667ZM8.333 10a3.21 3.21 0 0 1-2.354-.98A3.21 3.21 0 0 1 5 6.668c0-.917.326-1.702.98-2.354a3.21 3.21 0 0 1 2.353-.98 3.21 3.21 0 0 1 2.354.98 3.21 3.21 0 0 1 .98 2.354 3.21 3.21 0 0 1-.98 2.354A3.21 3.21 0 0 1 8.334 10ZM2.5 16.667a.804.804 0 0 1-.593-.24.804.804 0 0 1-.24-.594v-1.666c0-.361.125-.719.375-1.073s.618-.663 1.104-.927c.75-.403 1.57-.726 2.458-.969a10.291 10.291 0 0 1 2.73-.365c.374 0 .774.028 1.198.084.423.055.857.139 1.301.25v1.083c-.194.07-.36.139-.5.208-.139.07-.284.146-.437.23a2.988 2.988 0 0 0-1.167 1.145c-.264.473-.396.861-.396 1.167v1.667H2.5Z" fill="currentColor" /></g></symbol><mask id="property_manager_a" style="mask-type:alpha" maskUnits="userSpaceOnUse" x="0" y="0" width="20" height="20"><path fill="#D9D9D9" d="M0 0h20v20H0z" /></mask><symbol fill="none" viewBox="0 0 24 24" id="reports"><g mask="url(#reports_a)"><path d="M8 17h5a.968.968 0 0 0 .713-.288A.967.967 0 0 0 14 16a.97.97 0 0 0-.287-.713A.97.97 0 0 0 13 15H8a.97.97 0 0 0-.713.287A.97.97 0 0 0 7 16c0 .283.096.52.287.712.192.192.43.288.713.288Zm0-4h8c.283 0 .52-.096.712-.288A.965.965 0 0 0 17 12a.968.968 0 0 0-.288-.713A.967.967 0 0 0 16 11H8a.97.97 0 0 0-.713.287A.97.97 0 0 0 7 12c0 .283.096.52.287.712.192.192.43.288.713.288Zm0-4h8c.283 0 .52-.096.712-.288A.965.965 0 0 0 17 8a.968.968 0 0 0-.288-.713A.967.967 0 0 0 16 7H8a.97.97 0 0 0-.713.287A.97.97 0 0 0 7 8c0 .283.096.52.287.712.192.192.43.288.713.288ZM5 21c-.55 0-1.021-.196-1.413-.587A1.928 1.928 0 0 1 3 19V5c0-.55.196-1.021.587-1.413A1.928 1.928 0 0 1 5 3h4.2c.217-.6.58-1.083 1.088-1.45A2.855 2.855 0 0 1 12 1a2.86 2.86 0 0 1 1.713.55c.508.367.87.85 1.087 1.45H19c.55 0 1.021.196 1.413.587.391.392.587.863.587 1.413v14c0 .55-.196 1.021-.587 1.413A1.928 1.928 0 0 1 19 21H5Zm7-16.75a.728.728 0 0 0 .75-.75.731.731 0 0 0-.212-.538A.731.731 0 0 0 12 2.75a.728.728 0 0 0-.75.75.726.726 0 0 0 .75.75Z" fill="currentColor" /></g></symbol><mask id="reports_a" style="mask-type:alpha" maskUnits="userSpaceOnUse" x="0" y="0" width="24" height="24"><path fill="#D9D9D9" d="M0 0h24v24H0z" /></mask><symbol viewBox="0 0 448 512" id="rss"><path d="M128.081 415.959c0 35.369-28.672 64.041-64.041 64.041S0 451.328 0 415.959s28.672-64.041 64.041-64.041 64.04 28.673 64.04 64.041zm175.66 47.25c-8.354-154.6-132.185-278.587-286.95-286.95C7.656 175.765 0 183.105 0 192.253v48.069c0 8.415 6.49 15.472 14.887 16.018 111.832 7.284 201.473 96.702 208.772 208.772.547 8.397 7.604 14.887 16.018 14.887h48.069c9.149.001 16.489-7.655 15.995-16.79zm144.249.288C439.596 229.677 251.465 40.445 16.503 32.01 7.473 31.686 0 38.981 0 48.016v48.068c0 8.625 6.835 15.645 15.453 15.999 191.179 7.839 344.627 161.316 352.465 352.465.353 8.618 7.373 15.453 15.999 15.453h48.068c9.034-.001 16.329-7.474 16.005-16.504z" /></symbol><symbol fill="none" viewBox="0 0 24 24" id="settings"><g mask="url(#settings_a)"><path d="M13.875 22h-3.75a.934.934 0 0 1-.65-.25.997.997 0 0 1-.325-.625l-.3-2.325a3.772 3.772 0 0 1-.612-.3 8.197 8.197 0 0 1-.563-.375l-2.175.9a1.119 1.119 0 0 1-.7.025.93.93 0 0 1-.55-.425L2.4 15.4a.94.94 0 0 1-.125-.7.96.96 0 0 1 .375-.6l1.875-1.425a2.391 2.391 0 0 1-.025-.338v-.675c0-.108.008-.22.025-.337L2.65 9.9a.96.96 0 0 1-.375-.6.94.94 0 0 1 .125-.7l1.85-3.225a.788.788 0 0 1 .537-.438c.242-.058.48-.045.713.038l2.175.9c.183-.133.375-.258.575-.375.2-.117.4-.217.6-.3l.3-2.325a.997.997 0 0 1 .325-.625c.183-.167.4-.25.65-.25h3.75c.25 0 .467.083.65.25a.997.997 0 0 1 .325.625l.3 2.325c.217.083.421.183.613.3.191.117.379.242.562.375l2.175-.9c.233-.083.467-.092.7-.025a.93.93 0 0 1 .55.425L21.6 8.6a.94.94 0 0 1 .125.7.96.96 0 0 1-.375.6l-1.875 1.425c.017.117.025.229.025.337v.675c0 .109-.017.221-.05.338l1.875 1.425c.2.15.325.35.375.6a.94.94 0 0 1-.125.7l-1.85 3.2a.985.985 0 0 1-.562.438c-.242.075-.48.07-.713-.013l-2.125-.9a6.826 6.826 0 0 1-.575.375c-.2.117-.4.217-.6.3l-.3 2.325a.997.997 0 0 1-.325.625.934.934 0 0 1-.65.25Zm-1.825-6.5c.967 0 1.792-.342 2.475-1.025A3.372 3.372 0 0 0 15.55 12c0-.967-.342-1.792-1.025-2.475A3.372 3.372 0 0 0 12.05 8.5c-.983 0-1.813.342-2.488 1.025A3.394 3.394 0 0 0 8.55 12c0 .967.337 1.792 1.012 2.475S11.067 15.5 12.05 15.5Z" fill="currentColor" /></g></symbol><mask id="settings_a" style="mask-type:alpha" maskUnits="userSpaceOnUse" x="0" y="0" width="24" height="24"><path fill="#D9D9D9" d="M0 0h24v24H0z" /></mask><symbol fill="none" viewBox="0 0 24 24" id="tenancies"><g mask="url(#tenancies_a)"><path d="M8 13a.968.968 0 0 0 .713-.288A.967.967 0 0 0 9 12a.97.97 0 0 0-.287-.713A.97.97 0 0 0 8 11a.97.97 0 0 0-.713.287A.97.97 0 0 0 7 12c0 .283.096.52.287.712.192.192.43.288.713.288Zm9 7a.965.965 0 0 1-.712-.288A.965.965 0 0 1 16 19V9.375c0-.033-.05-.15-.15-.35L12.525 5.7c-.317-.317-.392-.68-.225-1.088.167-.408.475-.612.925-.612.133 0 .267.029.4.087.133.059.242.13.325.213l3.75 3.75a1 1 0 0 1 .3.725V19c0 .283-.096.52-.288.712A.965.965 0 0 1 17 20Zm4 0a.965.965 0 0 1-.712-.288A.965.965 0 0 1 20 19V7.725c0-.033-.05-.15-.15-.35L18.175 5.7c-.317-.317-.392-.68-.225-1.088.167-.408.475-.612.925-.612.133 0 .267.029.4.087.133.059.242.13.325.213l2.1 2.1a1.03 1.03 0 0 1 .3.725V19c0 .283-.096.52-.288.712A.965.965 0 0 1 21 20ZM3 20a.965.965 0 0 1-.712-.288A.965.965 0 0 1 2 19v-8.575a1 1 0 0 1 .3-.725l5-5c.1-.1.208-.171.325-.213.117-.041.242-.062.375-.062s.258.02.375.062A.883.883 0 0 1 8.7 4.7l5 5a1 1 0 0 1 .3.725V19c0 .283-.096.52-.287.712A.968.968 0 0 1 13 20H9v-4a.97.97 0 0 0-.287-.713A.97.97 0 0 0 8 15a.97.97 0 0 0-.713.287A.97.97 0 0 0 7 16v4H3Z" fill="currentColor" /></g></symbol><mask id="tenancies_a" style="mask-type:alpha" maskUnits="userSpaceOnUse" x="0" y="0" width="24" height="24"><path fill="#D9D9D9" d="M0 0h24v24H0z" /></mask><symbol fill="none" viewBox="0 0 24 12" id="tenant"><path d="M1 12a.965.965 0 0 1-.712-.288A.965.965 0 0 1 0 11v-.575c0-.733.367-1.321 1.1-1.763C1.833 8.221 2.8 8 4 8c.217 0 .421.008.613.025.191.017.379.042.562.075a3.553 3.553 0 0 0-.513 1.075A4.499 4.499 0 0 0 4.5 10.4V12H1Zm6 0a.968.968 0 0 1-.713-.288A.967.967 0 0 1 6 11v-.6c0-1.083.554-1.963 1.663-2.638C8.771 7.087 10.217 6.75 12 6.75c1.8 0 3.25.337 4.35 1.012C17.45 8.437 18 9.317 18 10.4v.6c0 .283-.096.52-.288.712A.965.965 0 0 1 17 12H7Zm12.5 0v-1.6c0-.433-.058-.842-.175-1.225a4.213 4.213 0 0 0-.5-1.075 6.09 6.09 0 0 1 .563-.075C19.579 8.008 19.783 8 20 8c1.2 0 2.167.22 2.9.662.733.442 1.1 1.03 1.1 1.763V11c0 .283-.096.52-.288.712A.965.965 0 0 1 23 12h-3.5ZM4 7c-.55 0-1.02-.196-1.412-.588A1.923 1.923 0 0 1 2 5c0-.55.196-1.021.588-1.413A1.925 1.925 0 0 1 4 3c.55 0 1.02.196 1.412.587C5.804 3.979 6 4.45 6 5s-.196 1.02-.588 1.412A1.923 1.923 0 0 1 4 7Zm16 0c-.55 0-1.021-.196-1.413-.588A1.925 1.925 0 0 1 18 5c0-.55.196-1.021.587-1.413A1.928 1.928 0 0 1 20 3c.55 0 1.021.196 1.413.587.391.392.587.863.587 1.413s-.196 1.02-.587 1.412A1.927 1.927 0 0 1 20 7Zm-8-1a2.893 2.893 0 0 1-2.125-.875A2.893 2.893 0 0 1 9 3c0-.833.292-1.542.875-2.125A2.893 2.893 0 0 1 12 0c.833 0 1.542.292 2.125.875S15 2.167 15 3s-.292 1.542-.875 2.125A2.893 2.893 0 0 1 12 6Z" fill="currentColor" /></symbol><symbol fill="none" viewBox="0 0 24 24" id="tenant1"><g mask="url(#tenant1_a)"><path d="M1 18a.965.965 0 0 1-.712-.288A.965.965 0 0 1 0 17v-.575c0-.733.367-1.321 1.1-1.763C1.833 14.221 2.8 14 4 14c.217 0 .421.008.613.025.191.017.379.042.562.075a3.553 3.553 0 0 0-.513 1.075A4.499 4.499 0 0 0 4.5 16.4V18H1Zm6 0a.968.968 0 0 1-.713-.288A.967.967 0 0 1 6 17v-.6c0-1.083.554-1.963 1.663-2.638 1.108-.675 2.554-1.012 4.337-1.012 1.8 0 3.25.337 4.35 1.012 1.1.675 1.65 1.555 1.65 2.638v.6c0 .283-.096.52-.288.712A.965.965 0 0 1 17 18H7Zm12.5 0v-1.6c0-.433-.058-.842-.175-1.225a4.213 4.213 0 0 0-.5-1.075c.183-.033.371-.058.563-.075.191-.017.395-.025.612-.025 1.2 0 2.167.22 2.9.662.733.442 1.1 1.03 1.1 1.763V17c0 .283-.096.52-.288.712A.965.965 0 0 1 23 18h-3.5ZM4 13c-.55 0-1.02-.196-1.412-.588A1.923 1.923 0 0 1 2 11c0-.55.196-1.021.588-1.413A1.925 1.925 0 0 1 4 9c.55 0 1.02.196 1.412.587C5.804 9.979 6 10.45 6 11s-.196 1.02-.588 1.412A1.923 1.923 0 0 1 4 13Zm16 0c-.55 0-1.021-.196-1.413-.588A1.925 1.925 0 0 1 18 11c0-.55.196-1.021.587-1.413A1.928 1.928 0 0 1 20 9c.55 0 1.021.196 1.413.587.391.392.587.863.587 1.413s-.196 1.02-.587 1.412A1.927 1.927 0 0 1 20 13Zm-8-1a2.893 2.893 0 0 1-2.125-.875A2.893 2.893 0 0 1 9 9c0-.833.292-1.542.875-2.125A2.893 2.893 0 0 1 12 6c.833 0 1.542.292 2.125.875S15 8.167 15 9s-.292 1.542-.875 2.125A2.893 2.893 0 0 1 12 12Z" fill="currentColor" /></g></symbol><mask id="tenant1_a" style="mask-type:alpha" maskUnits="userSpaceOnUse" x="0" y="0" width="24" height="24"><path fill="#D9D9D9" d="M0 0h24v24H0z" /></mask><symbol viewBox="0 0 24 24" id="twitter"><path d="M20 7.531a6.951 6.951 0 0 1-1.89.532c.708-.417 1.192-1.027 1.453-1.829a6.525 6.525 0 0 1-2.094.797C16.833 6.344 16.036 6 15.079 6c-.907 0-1.68.32-2.321.96s-.961 1.415-.961 2.321c0 .302.026.552.078.75-1.344-.073-2.604-.411-3.781-1.015s-2.177-1.412-3-2.422A3.25 3.25 0 0 0 4.64 8.25c0 1.188.474 2.099 1.421 2.734-.49-.01-1.01-.145-1.562-.406v.031c0 .782.26 1.477.781 2.086s1.162.987 1.922 1.133a3.048 3.048 0 0 1-.797.125c-.135 0-.338-.02-.61-.062.22.656.608 1.198 1.165 1.625s1.19.645 1.898.656c-1.208.937-2.567 1.406-4.078 1.406-.27 0-.531-.015-.781-.047A9.205 9.205 0 0 0 9.031 19c1.167 0 2.26-.185 3.281-.555s1.896-.864 2.626-1.484 1.356-1.333 1.882-2.14a9.43 9.43 0 0 0 1.555-5.165c0-.187-.005-.328-.016-.422A6.377 6.377 0 0 0 20 7.531zM24 4.5v15c0 1.24-.44 2.3-1.32 3.18S20.74 24 19.5 24h-15c-1.24 0-2.3-.44-3.18-1.32S0 20.74 0 19.5v-15c0-1.24.44-2.3 1.32-3.18S3.26 0 4.5 0h15c1.24 0 2.3.44 3.18 1.32S24 3.26 24 4.5z" /></symbol></defs><use id="Applications_person_add-usage" xlink:href="#Applications_person_add" class="sprite-symbol-usage" /><use id="angle-double-left-usage" xlink:href="#angle-double-left" class="sprite-symbol-usage" /><use id="angle-double-right-usage" xlink:href="#angle-double-right" class="sprite-symbol-usage" /><use id="angle-down-usage" xlink:href="#angle-down" class="sprite-symbol-usage" /><use id="angle-left-usage" xlink:href="#angle-left" class="sprite-symbol-usage" /><use id="angle-right-usage" xlink:href="#angle-right" class="sprite-symbol-usage" /><use id="angle-up-usage" xlink:href="#angle-up" class="sprite-symbol-usage" /><use id="calender-usage" xlink:href="#calender" class="sprite-symbol-usage" /><use id="chat-usage" xlink:href="#chat" class="sprite-symbol-usage" /><use id="check-usage" xlink:href="#check" class="sprite-symbol-usage" /><use id="close-usage" xlink:href="#close" class="sprite-symbol-usage" /><use id="copy-usage" xlink:href="#copy" class="sprite-symbol-usage" /><use id="dashboard-usage" xlink:href="#dashboard" class="sprite-symbol-usage" /><use id="delete-usage" xlink:href="#delete" class="sprite-symbol-usage" /><use id="download-usage" xlink:href="#download" class="sprite-symbol-usage" /><use id="edit-usage" xlink:href="#edit" class="sprite-symbol-usage" /><use id="facebook-usage" xlink:href="#facebook" class="sprite-symbol-usage" /><use id="finance-usage" xlink:href="#finance" class="sprite-symbol-usage" /><use id="group-usage" xlink:href="#group" class="sprite-symbol-usage" /><use id="group_add-usage" xlink:href="#group_add" class="sprite-symbol-usage" /><use id="inspections-usage" xlink:href="#inspections" class="sprite-symbol-usage" /><use id="inventory-usage" xlink:href="#inventory" class="sprite-symbol-usage" /><use id="leases-usage" xlink:href="#leases" class="sprite-symbol-usage" /><use id="linkedin-usage" xlink:href="#linkedin" class="sprite-symbol-usage" /><use id="logout-usage" xlink:href="#logout" class="sprite-symbol-usage" /><use id="message-icon-usage" xlink:href="#message-icon" class="sprite-symbol-usage" /><use id="minus-circle-usage" xlink:href="#minus-circle" class="sprite-symbol-usage" /><use id="open_in_new-usage" xlink:href="#open_in_new" class="sprite-symbol-usage" /><use id="owners-usage" xlink:href="#owners" class="sprite-symbol-usage" /><use id="plus-circle-usage" xlink:href="#plus-circle" class="sprite-symbol-usage" /><use id="plus-circle-2-usage" xlink:href="#plus-circle-2" class="sprite-symbol-usage" /><use id="properties-usage" xlink:href="#properties" class="sprite-symbol-usage" /><use id="property_manager-usage" xlink:href="#property_manager" class="sprite-symbol-usage" /><use id="reports-usage" xlink:href="#reports" class="sprite-symbol-usage" /><use id="rss-usage" xlink:href="#rss" class="sprite-symbol-usage" /><use id="settings-usage" xlink:href="#settings" class="sprite-symbol-usage" /><use id="tenancies-usage" xlink:href="#tenancies" class="sprite-symbol-usage" /><use id="tenant-usage" xlink:href="#tenant" class="sprite-symbol-usage" /><use id="tenant1-usage" xlink:href="#tenant1" class="sprite-symbol-usage" /><use id="twitter-usage" xlink:href="#twitter" class="sprite-symbol-usage" /></svg>