<svg width="10" height="6" viewBox="0 0 10 6" fill="none" xmlns="http://www.w3.org/2000/svg">
<path d="M8.91417 0.205844C8.85994 0.151169 8.79543 0.107772 8.72434 0.0781569C8.65326 0.0485418 8.57701 0.0332947 8.50001 0.0332947C8.423 0.0332947 8.34675 0.0485418 8.27567 0.0781569C8.20458 0.107772 8.14007 0.151169 8.08584 0.205844L3.74001 4.55751L1.91417 2.72584C1.85787 2.67145 1.7914 2.62869 1.71857 2.59999C1.64574 2.57128 1.56797 2.55721 1.48969 2.55856C1.41142 2.55992 1.33418 2.57667 1.26239 2.60788C1.19059 2.63908 1.12565 2.68412 1.07126 2.74043C1.01687 2.79673 0.974101 2.8632 0.945398 2.93603C0.916696 3.00886 0.90262 3.08663 0.903974 3.16491C0.905328 3.24318 0.922086 3.32042 0.953291 3.39221C0.984495 3.46401 1.02954 3.52895 1.08584 3.58334L3.32584 5.82334C3.38007 5.87802 3.44459 5.92141 3.51567 5.95103C3.58675 5.98065 3.663 5.99589 3.74001 5.99589C3.81701 5.99589 3.89326 5.98065 3.96434 5.95103C4.03543 5.92141 4.09994 5.87802 4.15417 5.82334L8.91417 1.06334C8.97338 1.00872 9.02064 0.942422 9.05296 0.868631C9.08528 0.794839 9.10197 0.715153 9.10197 0.634594C9.10197 0.554034 9.08528 0.474348 9.05296 0.400557C9.02064 0.326765 8.97338 0.260468 8.91417 0.205844Z" fill="white"/>
</svg>
