<svg width="16" height="16" viewBox="0 0 16 16" fill="none" xmlns="http://www.w3.org/2000/svg">
<circle cx="8" cy="8" r="7.5" stroke="white"/>
<path d="M11.355 5.60501C11.3085 5.55814 11.2532 5.52095 11.1923 5.49556C11.1313 5.47018 11.066 5.45711 11 5.45711C10.934 5.45711 10.8686 5.47018 10.8077 5.49556C10.7468 5.52095 10.6915 5.55814 10.645 5.60501L6.91998 9.33501L5.35498 7.76501C5.30671 7.71839 5.24974 7.68173 5.18732 7.65713C5.12489 7.63253 5.05823 7.62046 4.99114 7.62162C4.92405 7.62278 4.85784 7.63715 4.7963 7.66389C4.73476 7.69064 4.67909 7.72925 4.63247 7.77751C4.58586 7.82577 4.5492 7.88274 4.5246 7.94517C4.49999 8.00759 4.48793 8.07426 4.48909 8.14135C4.49025 8.20844 4.50461 8.27464 4.53136 8.33618C4.55811 8.39772 4.59671 8.45339 4.64497 8.50001L6.56498 10.42C6.61146 10.4669 6.66676 10.5041 6.72769 10.5295C6.78862 10.5548 6.85397 10.5679 6.91998 10.5679C6.98598 10.5679 7.05133 10.5548 7.11226 10.5295C7.17319 10.5041 7.22849 10.4669 7.27498 10.42L11.355 6.34001C11.4057 6.29319 11.4462 6.23636 11.4739 6.17311C11.5016 6.10986 11.5159 6.04156 11.5159 5.97251C11.5159 5.90346 11.5016 5.83515 11.4739 5.7719C11.4462 5.70865 11.4057 5.65183 11.355 5.60501Z" fill="white"/>
</svg>
