<svg width="18" height="12" viewBox="0 0 18 12" fill="none" xmlns="http://www.w3.org/2000/svg">
<path d="M1 12C0.716667 12 0.479333 11.904 0.288 11.712C0.0960001 11.5207 0 11.2833 0 11C0 10.7167 0.0960001 10.4793 0.288 10.288C0.479333 10.096 0.716667 10 1 10H12C12.2833 10 12.521 10.096 12.713 10.288C12.9043 10.4793 13 10.7167 13 11C13 11.2833 12.9043 11.5207 12.713 11.712C12.521 11.904 12.2833 12 12 12H1ZM1 7C0.716667 7 0.479333 6.904 0.288 6.712C0.0960001 6.52067 0 6.28333 0 6C0 5.71667 0.0960001 5.479 0.288 5.287C0.479333 5.09567 0.716667 5 1 5H9C9.28333 5 9.521 5.09567 9.713 5.287C9.90433 5.479 10 5.71667 10 6C10 6.28333 9.90433 6.52067 9.713 6.712C9.521 6.904 9.28333 7 9 7H1ZM1 2C0.716667 2 0.479333 1.90433 0.288 1.713C0.0960001 1.521 0 1.28333 0 1C0 0.716667 0.0960001 0.479 0.288 0.287C0.479333 0.0956668 0.716667 0 1 0H12C12.2833 0 12.521 0.0956668 12.713 0.287C12.9043 0.479 13 0.716667 13 1C13 1.28333 12.9043 1.521 12.713 1.713C12.521 1.90433 12.2833 2 12 2H1ZM14.4 6L17.3 8.9C17.4833 9.08333 17.575 9.31667 17.575 9.6C17.575 9.88333 17.4833 10.1167 17.3 10.3C17.1167 10.4833 16.8833 10.575 16.6 10.575C16.3167 10.575 16.0833 10.4833 15.9 10.3L12.3 6.7C12.1 6.5 12 6.26667 12 6C12 5.73333 12.1 5.5 12.3 5.3L15.9 1.7C16.0833 1.51667 16.3167 1.425 16.6 1.425C16.8833 1.425 17.1167 1.51667 17.3 1.7C17.4833 1.88333 17.575 2.11667 17.575 2.4C17.575 2.68333 17.4833 2.91667 17.3 3.1L14.4 6Z" fill="#7E889C"/>
</svg>
