<svg width="10" height="7" viewBox="0 0 10 7" fill="none" xmlns="http://www.w3.org/2000/svg">
<path d="M4.99995 6.45835C4.88884 6.45835 4.78467 6.44085 4.68745 6.40585C4.59023 6.37141 4.49995 6.31252 4.41662 6.22919L0.56245 2.37502C0.409673 2.22224 0.336895 2.03113 0.344117 1.80169C0.350784 1.5728 0.430506 1.38197 0.583283 1.22919C0.736061 1.07641 0.930506 1.00002 1.16662 1.00002C1.40273 1.00002 1.59717 1.07641 1.74995 1.22919L4.99995 4.47919L8.27078 1.20835C8.42356 1.05558 8.61467 0.982521 8.84412 0.989188C9.07301 0.99641 9.26384 1.07641 9.41662 1.22919C9.56939 1.38197 9.64578 1.57641 9.64578 1.81252C9.64578 2.04863 9.56939 2.24308 9.41662 2.39585L5.58328 6.22919C5.49995 6.31252 5.40967 6.37141 5.31245 6.40585C5.21523 6.44085 5.11106 6.45835 4.99995 6.45835Z" fill="#7E889C"/>
</svg>