<svg width="20" height="20" viewBox="0 0 20 20" fill="none" xmlns="http://www.w3.org/2000/svg">
<mask id="mask0_3894_233" style="mask-type:alpha" maskUnits="userSpaceOnUse" x="0" y="0" width="20" height="20">
<rect width="20" height="20" fill="#D9D9D9"/>
</mask>
<g mask="url(#mask0_3894_233)">
<path d="M15.303 11.7424C15.0884 11.7424 14.9086 11.6697 14.7636 11.5242C14.6182 11.3793 14.5454 11.1995 14.5454 10.9849V9.4697H13.0303C12.8156 9.4697 12.6358 9.39698 12.4909 9.25152C12.3454 9.10657 12.2727 8.92677 12.2727 8.71213C12.2727 8.49748 12.3454 8.31743 12.4909 8.17198C12.6358 8.02703 12.8156 7.95455 13.0303 7.95455H14.5454V6.4394C14.5454 6.22475 14.6182 6.0447 14.7636 5.89925C14.9086 5.7543 15.0884 5.68182 15.303 5.68182C15.5177 5.68182 15.6975 5.7543 15.8424 5.89925C15.9879 6.0447 16.0606 6.22475 16.0606 6.4394V7.95455H17.5757C17.7904 7.95455 17.9702 8.02703 18.1151 8.17198C18.2606 8.31743 18.3333 8.49748 18.3333 8.71213C18.3333 8.92677 18.2606 9.10657 18.1151 9.25152C17.9702 9.39698 17.7904 9.4697 17.5757 9.4697H16.0606V10.9849C16.0606 11.1995 15.9879 11.3793 15.8424 11.5242C15.6975 11.6697 15.5177 11.7424 15.303 11.7424ZM7.72726 10.2273C6.89393 10.2273 6.18055 9.93056 5.58711 9.33713C4.99368 8.74369 4.69696 8.03031 4.69696 7.19698C4.69696 6.36364 4.99368 5.65026 5.58711 5.05682C6.18055 4.46339 6.89393 4.16667 7.72726 4.16667C8.5606 4.16667 9.27398 4.46339 9.86741 5.05682C10.4608 5.65026 10.7576 6.36364 10.7576 7.19698C10.7576 8.03031 10.4608 8.74369 9.86741 9.33713C9.27398 9.93056 8.5606 10.2273 7.72726 10.2273ZM2.42423 16.2879C2.20959 16.2879 2.02979 16.2152 1.88484 16.0697C1.73938 15.9248 1.66666 15.745 1.66666 15.5303V14.1667C1.66666 13.7374 1.77726 13.3427 1.99847 12.9826C2.21918 12.623 2.51262 12.3485 2.87878 12.1591C3.66161 11.7677 4.45706 11.474 5.26514 11.278C6.07322 11.0826 6.89393 10.9849 7.72726 10.9849C8.5606 10.9849 9.3813 11.0826 10.1894 11.278C10.9975 11.474 11.7929 11.7677 12.5757 12.1591C12.9419 12.3485 13.2353 12.623 13.4561 12.9826C13.6773 13.3427 13.7879 13.7374 13.7879 14.1667V15.5303C13.7879 15.745 13.7151 15.9248 13.5697 16.0697C13.4247 16.2152 13.2449 16.2879 13.0303 16.2879H2.42423Z" fill="#667085"/>
</g>
</svg>
