<svg width="20" height="20" viewBox="0 0 20 20" fill="none" xmlns="http://www.w3.org/2000/svg">
<mask id="mask0_3894_245" style="mask-type:alpha" maskUnits="userSpaceOnUse" x="0" y="0" width="20" height="20">
<rect width="20" height="20" fill="#D9D9D9"/>
</mask>
<g mask="url(#mask0_3894_245)">
<path d="M5.83332 11.6667H10.8542C11.0903 11.6667 11.2847 11.5867 11.4375 11.4267C11.5903 11.2672 11.6667 11.0694 11.6667 10.8333C11.6667 10.5972 11.5869 10.3992 11.4275 10.2392C11.2675 10.0797 11.0694 9.99999 10.8333 9.99999H5.81249C5.57638 9.99999 5.38193 10.0797 5.22916 10.2392C5.07638 10.3992 4.99999 10.5972 4.99999 10.8333C4.99999 11.0694 5.07971 11.2672 5.23916 11.4267C5.39916 11.5867 5.59721 11.6667 5.83332 11.6667ZM5.83332 9.16666H14.1875C14.4236 9.16666 14.618 9.08666 14.7708 8.92666C14.9236 8.76721 15 8.56943 15 8.33332C15 8.09721 14.92 7.89916 14.76 7.73916C14.6005 7.57971 14.4028 7.49999 14.1667 7.49999H5.81249C5.57638 7.49999 5.38193 7.57971 5.22916 7.73916C5.07638 7.89916 4.99999 8.09721 4.99999 8.33332C4.99999 8.56943 5.07971 8.76721 5.23916 8.92666C5.39916 9.08666 5.59721 9.16666 5.83332 9.16666ZM5.83332 6.66666H14.1875C14.4236 6.66666 14.618 6.58693 14.7708 6.42749C14.9236 6.26749 15 6.06943 15 5.83332C15 5.59721 14.92 5.39916 14.76 5.23916C14.6005 5.07971 14.4028 4.99999 14.1667 4.99999H5.81249C5.57638 4.99999 5.38193 5.07971 5.22916 5.23916C5.07638 5.39916 4.99999 5.59721 4.99999 5.83332C4.99999 6.06943 5.07971 6.26749 5.23916 6.42749C5.39916 6.58693 5.59721 6.66666 5.83332 6.66666ZM1.66666 16.3125V3.33332C1.66666 2.87499 1.82999 2.48249 2.15666 2.15582C2.48277 1.82971 2.87499 1.66666 3.33332 1.66666H16.6667C17.125 1.66666 17.5175 1.82971 17.8442 2.15582C18.1703 2.48249 18.3333 2.87499 18.3333 3.33332V13.3333C18.3333 13.7917 18.1703 14.1842 17.8442 14.5108C17.5175 14.8369 17.125 15 16.6667 15H4.99999L3.08332 16.9167C2.81943 17.1805 2.51721 17.2394 2.17666 17.0933C1.83666 16.9478 1.66666 16.6875 1.66666 16.3125Z" fill="#667085"/>
</g>
</svg>
