<svg width="16" height="16" viewBox="0 0 16 16" fill="none" xmlns="http://www.w3.org/2000/svg">
<circle cx="8" cy="8" r="7.5" stroke="currentColor"/>
<path d="M11.355 5.60499C11.3085 5.55813 11.2532 5.52093 11.1923 5.49555C11.1313 5.47016 11.066 5.45709 11 5.45709C10.934 5.45709 10.8686 5.47016 10.8077 5.49555C10.7468 5.52093 10.6915 5.55813 10.645 5.60499L6.91998 9.33499L5.35498 7.76499C5.30671 7.71837 5.24974 7.68172 5.18732 7.65711C5.12489 7.63251 5.05823 7.62045 4.99114 7.62161C4.92405 7.62277 4.85784 7.63713 4.7963 7.66388C4.73476 7.69062 4.67909 7.72923 4.63247 7.77749C4.58586 7.82575 4.5492 7.88272 4.5246 7.94515C4.49999 8.00758 4.48793 8.07424 4.48909 8.14133C4.49025 8.20842 4.50461 8.27463 4.53136 8.33616C4.55811 8.3977 4.59671 8.45337 4.64497 8.49999L6.56498 10.42C6.61146 10.4669 6.66676 10.5041 6.72769 10.5294C6.78862 10.5548 6.85397 10.5679 6.91998 10.5679C6.98598 10.5679 7.05133 10.5548 7.11226 10.5294C7.17319 10.5041 7.22849 10.4669 7.27498 10.42L11.355 6.33999C11.4057 6.29317 11.4462 6.23634 11.4739 6.17309C11.5016 6.10984 11.5159 6.04154 11.5159 5.97249C11.5159 5.90344 11.5016 5.83514 11.4739 5.77189C11.4462 5.70864 11.4057 5.65181 11.355 5.60499Z" fill="currentColor"/>
</svg>
