<svg width="20" height="20" viewBox="0 0 20 20" fill="none" xmlns="http://www.w3.org/2000/svg">
<mask id="mask0_6929_17571" style="mask-type:alpha" maskUnits="userSpaceOnUse" x="0" y="0" width="20" height="20">
<rect width="20" height="20" fill="#D9D9D9"/>
</mask>
<g mask="url(#mask0_6929_17571)">
<path d="M8.57851 14.5C8.1741 14.5 7.82802 14.3533 7.54028 14.0597C7.25204 13.7657 7.10792 13.4125 7.10792 13V4C7.10792 3.5875 7.25204 3.23425 7.54028 2.94025C7.82802 2.64675 8.1741 2.5 8.57851 2.5H15.1962C15.6006 2.5 15.9469 2.64675 16.2351 2.94025C16.5229 3.23425 16.6667 3.5875 16.6667 4V13C16.6667 13.4125 16.5229 13.7657 16.2351 14.0597C15.9469 14.3533 15.6006 14.5 15.1962 14.5H8.57851ZM5.63734 17.5C5.23292 17.5 4.8866 17.3533 4.59837 17.0597C4.31062 16.7657 4.16675 16.4125 4.16675 16V6.25C4.16675 6.0375 4.23734 5.85925 4.37851 5.71525C4.5192 5.57175 4.69371 5.5 4.90204 5.5C5.11038 5.5 5.28513 5.57175 5.42631 5.71525C5.56699 5.85925 5.63734 6.0375 5.63734 6.25V16H12.9903C13.1986 16 13.3734 16.072 13.5145 16.216C13.6552 16.3595 13.7256 16.5375 13.7256 16.75C13.7256 16.9625 13.6552 17.1405 13.5145 17.284C13.3734 17.428 13.1986 17.5 12.9903 17.5H5.63734Z" fill="#475467"/>
</g>
</svg>
