<svg width="22" height="22" viewBox="0 0 22 22" fill="none" xmlns="http://www.w3.org/2000/svg">
<mask id="mask0_11122_175469" style="mask-type:alpha" maskUnits="userSpaceOnUse" x="0" y="0" width="22" height="22">
<rect width="22" height="22" fill="#D9D9D9"/>
</mask>
<g mask="url(#mask0_11122_175469)">
<path d="M6.41602 19.25C5.91185 19.25 5.4804 19.0706 5.12168 18.7119C4.76235 18.3526 4.58268 17.9208 4.58268 17.4167V5.5C4.32296 5.5 4.1051 5.41231 3.9291 5.23692C3.75371 5.06092 3.66602 4.84306 3.66602 4.58333C3.66602 4.32361 3.75371 4.10575 3.9291 3.92975C4.1051 3.75436 4.32296 3.66667 4.58268 3.66667H8.24935C8.24935 3.40694 8.33735 3.18908 8.51335 3.01308C8.68874 2.83769 8.90629 2.75 9.16602 2.75H12.8327C13.0924 2.75 13.3103 2.83769 13.4863 3.01308C13.6617 3.18908 13.7493 3.40694 13.7493 3.66667H17.416C17.6757 3.66667 17.8933 3.75436 18.0687 3.92975C18.2447 4.10575 18.3327 4.32361 18.3327 4.58333C18.3327 4.84306 18.2447 5.06092 18.0687 5.23692C17.8933 5.41231 17.6757 5.5 17.416 5.5V17.4167C17.416 17.9208 17.2367 18.3526 16.8779 18.7119C16.5186 19.0706 16.0868 19.25 15.5827 19.25H6.41602ZM8.24935 14.6667C8.24935 14.9264 8.33735 15.1439 8.51335 15.3193C8.68874 15.4953 8.90629 15.5833 9.16602 15.5833C9.42574 15.5833 9.6436 15.4953 9.8196 15.3193C9.99499 15.1439 10.0827 14.9264 10.0827 14.6667V8.25C10.0827 7.99028 9.99499 7.77242 9.8196 7.59642C9.6436 7.42103 9.42574 7.33333 9.16602 7.33333C8.90629 7.33333 8.68874 7.42103 8.51335 7.59642C8.33735 7.77242 8.24935 7.99028 8.24935 8.25V14.6667ZM11.916 14.6667C11.916 14.9264 12.004 15.1439 12.18 15.3193C12.3554 15.4953 12.573 15.5833 12.8327 15.5833C13.0924 15.5833 13.3103 15.4953 13.4863 15.3193C13.6617 15.1439 13.7493 14.9264 13.7493 14.6667V8.25C13.7493 7.99028 13.6617 7.77242 13.4863 7.59642C13.3103 7.42103 13.0924 7.33333 12.8327 7.33333C12.573 7.33333 12.3554 7.42103 12.18 7.59642C12.004 7.77242 11.916 7.99028 11.916 8.25V14.6667Z" fill="currentColor"/>
</g>
</svg>
