<svg width="21" height="20" viewBox="0 0 21 20" fill="none" xmlns="http://www.w3.org/2000/svg">
<mask id="mask0_5165_14860" style="mask-type:alpha" maskUnits="userSpaceOnUse" x="0" y="0" width="21" height="20">
<rect x="0.5" width="20" height="20" fill="#D9D9D9"/>
</mask>
<g mask="url(#mask0_5165_14860)">
<path d="M5.91668 16.6667C4.65279 16.6667 3.57307 16.2292 2.67751 15.3542C1.7814 14.4792 1.33334 13.4097 1.33334 12.1458C1.33334 11.0625 1.65973 10.0972 2.31251 9.25001C2.96529 8.40279 3.81945 7.86112 4.87501 7.62501C5.19445 6.50001 5.78834 5.55557 6.65668 4.79168C7.52445 4.02779 8.52779 3.56251 9.66668 3.39584V10.125L8.91668 9.39584C8.7639 9.24307 8.57307 9.16668 8.34418 9.16668C8.11473 9.16668 7.91668 9.25001 7.75001 9.41668C7.59723 9.56945 7.52084 9.7639 7.52084 10C7.52084 10.2361 7.59723 10.4306 7.75001 10.5833L9.91668 12.75C10.0833 12.9167 10.2778 13 10.5 13C10.7222 13 10.9167 12.9167 11.0833 12.75L13.25 10.5833C13.4028 10.4306 13.4828 10.2395 13.49 10.01C13.4967 9.78112 13.4167 9.58334 13.25 9.41668C13.0972 9.2639 12.9064 9.1839 12.6775 9.17668C12.4481 9.17001 12.25 9.24307 12.0833 9.39584L11.3333 10.125V3.39584C12.7639 3.59029 13.955 4.23251 14.9067 5.32251C15.8578 6.41307 16.3333 7.69445 16.3333 9.16668C17.2917 9.27779 18.087 9.69084 18.7192 10.4058C19.3508 11.1214 19.6667 11.9583 19.6667 12.9167C19.6667 13.9583 19.3022 14.8439 18.5733 15.5733C17.8439 16.3022 16.9583 16.6667 15.9167 16.6667H5.91668Z" fill="#475467"/>
</g>
</svg>
