<svg width="16" height="16" viewBox="0 0 16 16" fill="none" xmlns="http://www.w3.org/2000/svg">
<rect width="16" height="16" fill="transparent"/>
<mask id="mask0_12379_189207" style="mask-type:alpha" maskUnits="userSpaceOnUse" x="0" y="0" width="16" height="16">
<rect width="16" height="16" fill="#D9D9D9"/>
</mask>
<g mask="url(#mask0_12379_189207)">
<path d="M12.8667 5.94998L10.0333 3.14998L10.9667 2.21665C11.2222 1.96109 11.5362 1.83331 11.9087 1.83331C12.2807 1.83331 12.5944 1.96109 12.85 2.21665L13.7833 3.14998C14.0389 3.40554 14.1722 3.71398 14.1833 4.07531C14.1944 4.4362 14.0722 4.74442 13.8167 4.99998L12.8667 5.94998ZM2.66667 14C2.47778 14 2.31956 13.936 2.192 13.808C2.064 13.6804 2 13.5222 2 13.3333V11.45C2 11.3611 2.01667 11.2751 2.05 11.192C2.08333 11.1084 2.13333 11.0333 2.2 10.9666L9.06667 4.09998L11.9 6.93331L5.03333 13.8C4.96667 13.8666 4.89178 13.9166 4.80867 13.95C4.72511 13.9833 4.63889 14 4.55 14H2.66667Z" fill="currentColor"/>
</g>
</svg>
