<svg width="20" height="20" viewBox="0 0 20 20" fill="none" xmlns="http://www.w3.org/2000/svg">
<mask id="mask0_3894_221" style="mask-type:alpha" maskUnits="userSpaceOnUse" x="0" y="0" width="20" height="20">
<rect width="20" height="20" fill="#D9D9D9"/>
</mask>
<g mask="url(#mask0_3894_221)">
<path d="M10.4167 9.95834C10.8194 9.51389 11.1286 9.00695 11.3442 8.4375C11.5592 7.86806 11.6667 7.27778 11.6667 6.66667C11.6667 6.05556 11.5592 5.46528 11.3442 4.89584C11.1286 4.32639 10.8194 3.81945 10.4167 3.375C11.25 3.48611 11.9444 3.85417 12.5 4.47917C13.0556 5.10417 13.3333 5.83334 13.3333 6.66667C13.3333 7.5 13.0556 8.22917 12.5 8.85417C11.9444 9.47917 11.25 9.84722 10.4167 9.95834ZM14.6042 16.6667C14.7292 16.5694 14.8264 16.4478 14.8958 16.3017C14.9653 16.1561 15 15.9931 15 15.8125V14.1667C15 13.6667 14.8889 13.1911 14.6667 12.74C14.4444 12.2883 14.1528 11.8889 13.7917 11.5417C14.5 11.7917 15.1564 12.1144 15.7608 12.51C16.3647 12.9061 16.6667 13.4583 16.6667 14.1667V15.8333C16.6667 16.0694 16.5867 16.2672 16.4267 16.4267C16.2672 16.5867 16.0694 16.6667 15.8333 16.6667H14.6042ZM17.5 10.8333C17.2639 10.8333 17.0661 10.7533 16.9067 10.5933C16.7467 10.4339 16.6667 10.2361 16.6667 10V9.16667H15.8333C15.5972 9.16667 15.3994 9.08667 15.24 8.92667C15.08 8.76722 15 8.56945 15 8.33334C15 8.09722 15.08 7.89917 15.24 7.73917C15.3994 7.57972 15.5972 7.5 15.8333 7.5H16.6667V6.66667C16.6667 6.43056 16.7467 6.2325 16.9067 6.0725C17.0661 5.91306 17.2639 5.83334 17.5 5.83334C17.7361 5.83334 17.9339 5.91306 18.0933 6.0725C18.2533 6.2325 18.3333 6.43056 18.3333 6.66667V7.5H19.1667C19.4028 7.5 19.6006 7.57972 19.76 7.73917C19.92 7.89917 20 8.09722 20 8.33334C20 8.56945 19.92 8.76722 19.76 8.92667C19.6006 9.08667 19.4028 9.16667 19.1667 9.16667H18.3333V10C18.3333 10.2361 18.2533 10.4339 18.0933 10.5933C17.9339 10.7533 17.7361 10.8333 17.5 10.8333ZM6.66667 10C5.75 10 4.96528 9.67361 4.3125 9.02084C3.65972 8.36806 3.33333 7.58334 3.33333 6.66667C3.33333 5.75 3.65972 4.96528 4.3125 4.3125C4.96528 3.65972 5.75 3.33334 6.66667 3.33334C7.58333 3.33334 8.36806 3.65972 9.02083 4.3125C9.67361 4.96528 10 5.75 10 6.66667C10 7.58334 9.67361 8.36806 9.02083 9.02084C8.36806 9.67361 7.58333 10 6.66667 10ZM0.833333 16.6667C0.597222 16.6667 0.399444 16.5867 0.24 16.4267C0.08 16.2672 0 16.0694 0 15.8333V14.3333C0 13.8611 0.121667 13.4269 0.365 13.0308C0.607778 12.6353 0.930556 12.3333 1.33333 12.125C2.19444 11.6944 3.06944 11.3714 3.95833 11.1558C4.84722 10.9408 5.75 10.8333 6.66667 10.8333C7.58333 10.8333 8.48611 10.9408 9.375 11.1558C10.2639 11.3714 11.1389 11.6944 12 12.125C12.4028 12.3333 12.7256 12.6353 12.9683 13.0308C13.2117 13.4269 13.3333 13.8611 13.3333 14.3333V15.8333C13.3333 16.0694 13.2536 16.2672 13.0942 16.4267C12.9342 16.5867 12.7361 16.6667 12.5 16.6667H0.833333Z" fill="#667085"/>
</g>
</svg>
