<svg width="20" height="20" viewBox="0 0 20 20" fill="none" xmlns="http://www.w3.org/2000/svg">
<mask id="mask0_3894_113" style="mask-type:alpha" maskUnits="userSpaceOnUse" x="0" y="0" width="20" height="20">
<rect width="20" height="20" fill="#D9D9D9"/>
</mask>
<g mask="url(#mask0_3894_113)">
<path d="M1.66668 16.6667C1.43057 16.6667 1.23279 16.5867 1.07334 16.4267C0.913343 16.2672 0.833344 16.0695 0.833344 15.8333V14.3333C0.833344 13.8611 0.95501 13.427 1.19834 13.0308C1.44112 12.6353 1.7639 12.3333 2.16668 12.125C3.02779 11.6945 3.90279 11.3714 4.79168 11.1558C5.68057 10.9408 6.58334 10.8333 7.50001 10.8333C8.41668 10.8333 9.31945 10.9408 10.2083 11.1558C11.0972 11.3714 11.9722 11.6945 12.8333 12.125C13.2361 12.3333 13.5589 12.6353 13.8017 13.0308C14.045 13.427 14.1667 13.8611 14.1667 14.3333V15.8333C14.1667 16.0695 14.0867 16.2672 13.9267 16.4267C13.7672 16.5867 13.5695 16.6667 13.3333 16.6667H1.66668ZM15.4375 16.6667C15.5625 16.5695 15.6597 16.4478 15.7292 16.3017C15.7986 16.1561 15.8333 15.9931 15.8333 15.8125V14.1667C15.8333 13.5556 15.6633 12.9686 15.3233 12.4058C14.9828 11.8436 14.5 11.3611 13.875 10.9583C14.5833 11.0417 15.25 11.1839 15.875 11.385C16.5 11.5867 17.0833 11.8333 17.625 12.125C18.125 12.4028 18.507 12.7117 18.7708 13.0517C19.0347 13.3922 19.1667 13.7639 19.1667 14.1667V15.8333C19.1667 16.0695 19.0867 16.2672 18.9267 16.4267C18.7672 16.5867 18.5695 16.6667 18.3333 16.6667H15.4375ZM7.50001 10C6.58334 10 5.79862 9.67362 5.14584 9.02084C4.49307 8.36807 4.16668 7.58334 4.16668 6.66668C4.16668 5.75001 4.49307 4.96529 5.14584 4.31251C5.79862 3.65973 6.58334 3.33334 7.50001 3.33334C8.41668 3.33334 9.2014 3.65973 9.85418 4.31251C10.507 4.96529 10.8333 5.75001 10.8333 6.66668C10.8333 7.58334 10.507 8.36807 9.85418 9.02084C9.2014 9.67362 8.41668 10 7.50001 10ZM15.8333 6.66668C15.8333 7.58334 15.507 8.36807 14.8542 9.02084C14.2014 9.67362 13.4167 10 12.5 10C12.3472 10 12.1528 9.98279 11.9167 9.94834C11.6806 9.91334 11.4861 9.87501 11.3333 9.83334C11.7083 9.3889 11.9964 8.89584 12.1975 8.35418C12.3992 7.81251 12.5 7.25001 12.5 6.66668C12.5 6.08334 12.3992 5.52084 12.1975 4.97918C11.9964 4.43751 11.7083 3.94445 11.3333 3.50001C11.5278 3.43057 11.7222 3.38529 11.9167 3.36418C12.1111 3.34362 12.3056 3.33334 12.5 3.33334C13.4167 3.33334 14.2014 3.65973 14.8542 4.31251C15.507 4.96529 15.8333 5.75001 15.8333 6.66668Z" fill="currentColor"/>
</g>
</svg>
