<svg width="20" height="20" viewBox="0 0 20 20" fill="none" xmlns="http://www.w3.org/2000/svg">
<mask id="mask0_17803_24262" style="mask-type:alpha" maskUnits="userSpaceOnUse" x="0" y="0" width="20" height="20">
<rect width="20" height="20" fill="#D9D9D9"/>
</mask>
<g mask="url(#mask0_17803_24262)">
<path d="M9.95817 15.0003C10.2498 15.0003 10.4964 14.8996 10.6978 14.6982C10.8991 14.4969 10.9998 14.2503 10.9998 13.9587C10.9998 13.667 10.8991 13.4205 10.6978 13.2191C10.4964 13.0177 10.2498 12.917 9.95817 12.917C9.6665 12.917 9.41998 13.0177 9.21859 13.2191C9.0172 13.4205 8.9165 13.667 8.9165 13.9587C8.9165 14.2503 9.0172 14.4969 9.21859 14.6982C9.41998 14.8996 9.6665 15.0003 9.95817 15.0003ZM10.0832 6.41699C10.4721 6.41699 10.7846 6.52463 11.0207 6.73991C11.2568 6.95519 11.3748 7.23644 11.3748 7.58366C11.3748 7.81977 11.295 8.05935 11.1353 8.30241C10.9755 8.54546 10.7498 8.79894 10.4582 9.06283C10.0415 9.42394 9.73595 9.77116 9.5415 10.1045C9.34706 10.4378 9.24984 10.7712 9.24984 11.1045C9.24984 11.2989 9.32275 11.4621 9.46859 11.5941C9.61442 11.726 9.78456 11.792 9.979 11.792C10.1734 11.792 10.3471 11.7225 10.4998 11.5837C10.6526 11.4448 10.7498 11.2712 10.7915 11.0628C10.8332 10.8267 10.9269 10.608 11.0728 10.4066C11.2186 10.2052 11.4582 9.94477 11.7915 9.62533C12.2221 9.22255 12.5241 8.85449 12.6978 8.52116C12.8714 8.18783 12.9582 7.81977 12.9582 7.41699C12.9582 6.70866 12.6908 6.1288 12.1561 5.67741C11.6214 5.22602 10.9304 5.00033 10.0832 5.00033C9.49984 5.00033 8.98248 5.11144 8.53109 5.33366C8.0797 5.55588 7.729 5.89616 7.479 6.35449C7.38178 6.53505 7.34706 6.71213 7.37484 6.88574C7.40262 7.05935 7.49984 7.20171 7.6665 7.31283C7.84706 7.42394 8.04498 7.45866 8.26025 7.41699C8.47553 7.37533 8.65262 7.25727 8.7915 7.06283C8.94428 6.85449 9.12831 6.69477 9.34359 6.58366C9.55887 6.47255 9.80539 6.41699 10.0832 6.41699ZM9.99984 18.3337C8.86095 18.3337 7.78456 18.1149 6.77067 17.6774C5.75678 17.2399 4.87137 16.6462 4.11442 15.8962C3.35748 15.1462 2.76025 14.2642 2.32275 13.2503C1.88525 12.2364 1.6665 11.1531 1.6665 10.0003C1.6665 8.84755 1.88525 7.76421 2.32275 6.75033C2.76025 5.73644 3.35748 4.85449 4.11442 4.10449C4.87137 3.35449 5.75678 2.76074 6.77067 2.32324C7.78456 1.88574 8.86095 1.66699 9.99984 1.66699C11.1665 1.66699 12.2568 1.88574 13.2707 2.32324C14.2846 2.76074 15.1665 3.35449 15.9165 4.10449C16.6665 4.85449 17.2568 5.73644 17.6873 6.75033C18.1179 7.76421 18.3332 8.84755 18.3332 10.0003C18.3332 11.1531 18.1179 12.2364 17.6873 13.2503C17.2568 14.2642 16.6665 15.1462 15.9165 15.8962C15.1665 16.6462 14.2846 17.2399 13.2707 17.6774C12.2568 18.1149 11.1665 18.3337 9.99984 18.3337Z" fill="currentColor"/>
</g>
</svg>
