<svg width="19" height="17" viewBox="0 0 19 17" fill="none" xmlns="http://www.w3.org/2000/svg">
<path d="M2.95625 16.5028C2.68011 16.5028 2.45625 16.2789 2.45625 16.0028V8.76304H0.779448C0.316405 8.76304 0.102125 8.18794 0.452277 7.88495L9.17556 0.336586C9.36221 0.17508 9.63878 0.173932 9.82676 0.333881L14.5312 4.33689V2.00705C14.5312 1.7309 14.7551 1.50705 15.0312 1.50705H16.0438C16.3199 1.50705 16.5438 1.7309 16.5438 2.00705V6.1267L18.5541 7.8755C18.9029 8.17899 18.6883 8.75274 18.2259 8.75274H16.5438V16.0028C16.5438 16.2789 16.3199 16.5028 16.0438 16.5028H11.2578C10.9817 16.5028 10.7578 16.2789 10.7578 16.0028V10.698H8.24219V16.0028C8.24219 16.2789 8.01833 16.5028 7.74219 16.5028H2.95625ZM3.96562 15.0516H6.73281V9.24678H12.2672V15.0516H15.0344V6.80393L9.5 1.96659L3.96562 6.80393V15.0516ZM7.36172 6.58625H11.6383C11.6383 6.05414 11.4245 5.61475 10.9968 5.26807C10.5691 4.9214 10.0702 4.74806 9.5 4.74806C8.92979 4.74806 8.43086 4.92012 8.0032 5.26425C7.57555 5.6084 7.36172 6.04906 7.36172 6.58625Z" fill="currentColor"/>
</svg>
