<svg width="24" height="24" viewBox="0 0 24 24" fill="none" xmlns="http://www.w3.org/2000/svg">
<mask id="mask0_980_5783" style="mask-type:alpha" maskUnits="userSpaceOnUse" x="0" y="0" width="24" height="24">
<rect x="-1.14441e-05" width="24" height="24" fill="#D9D9D9"/>
</mask>
<g mask="url(#mask0_980_5783)">
<path d="M7.99999 12H13.025C13.3083 12 13.5417 11.904 13.725 11.712C13.9083 11.5207 14 11.2833 14 11C14 10.7167 13.9043 10.479 13.713 10.287C13.521 10.0957 13.2833 10 13 10H7.97499C7.69166 10 7.45832 10.0957 7.27499 10.287C7.09166 10.479 6.99999 10.7167 6.99999 11C6.99999 11.2833 7.09566 11.5207 7.28699 11.712C7.47899 11.904 7.71666 12 7.99999 12ZM7.99999 9H13.025C13.3083 9 13.5417 8.904 13.725 8.712C13.9083 8.52067 14 8.28333 14 8C14 7.71667 13.9043 7.479 13.713 7.287C13.521 7.09567 13.2833 7 13 7H7.97499C7.69166 7 7.45832 7.09567 7.27499 7.287C7.09166 7.479 6.99999 7.71667 6.99999 8C6.99999 8.28333 7.09566 8.52067 7.28699 8.712C7.47899 8.904 7.71666 9 7.99999 9ZM7.99999 15H9.02499C9.30832 15 9.54166 14.904 9.72499 14.712C9.90832 14.5207 9.99999 14.2833 9.99999 14C9.99999 13.7167 9.90432 13.479 9.71299 13.287C9.52099 13.0957 9.28332 13 8.99999 13H7.97499C7.69166 13 7.45832 13.0957 7.27499 13.287C7.09166 13.479 6.99999 13.7167 6.99999 14C6.99999 14.2833 7.09566 14.5207 7.28699 14.712C7.47899 14.904 7.71666 15 7.99999 15ZM12 22C10.6167 22 9.31666 21.7373 8.09999 21.212C6.88332 20.6873 5.82499 19.975 4.92499 19.075C4.02499 18.175 3.31266 17.1167 2.78799 15.9C2.26266 14.6833 1.99999 13.3833 1.99999 12C1.99999 10.6167 2.26266 9.31667 2.78799 8.1C3.31266 6.88333 4.02499 5.825 4.92499 4.925C5.82499 4.025 6.88332 3.31233 8.09999 2.787C9.31666 2.26233 10.6167 2 12 2C13.3833 2 14.6833 2.26233 15.9 2.787C17.1167 3.31233 18.175 4.025 19.075 4.925C19.975 5.825 20.6873 6.88333 21.212 8.1C21.7373 9.31667 22 10.6167 22 12C22 13.3833 21.7373 14.6833 21.212 15.9C20.6873 17.1167 19.975 18.175 19.075 19.075C18.175 19.975 17.1167 20.6873 15.9 21.212C14.6833 21.7373 13.3833 22 12 22ZM14.05 15.55L13.35 14.85C13.15 14.65 12.9127 14.5457 12.638 14.537C12.3627 14.529 12.125 14.625 11.925 14.825C11.725 15.025 11.625 15.2623 11.625 15.537C11.625 15.8123 11.725 16.05 11.925 16.25L13.35 17.675C13.55 17.875 13.7833 17.975 14.05 17.975C14.3167 17.975 14.55 17.875 14.75 17.675L18.325 14.1C18.525 13.9 18.621 13.6667 18.613 13.4C18.6043 13.1333 18.5 12.9 18.3 12.7C18.1 12.5167 17.8667 12.4207 17.6 12.412C17.3333 12.404 17.1 12.5 16.9 12.7L14.05 15.55Z" fill="currentColor"/>
</g>
</svg>
