<svg width="24" height="24" viewBox="0 0 24 24" fill="none" xmlns="http://www.w3.org/2000/svg">
<mask id="mask0_980_5791" style="mask-type:alpha" maskUnits="userSpaceOnUse" x="0" y="0" width="24" height="24">
<rect x="-1.14441e-05" width="24" height="24" fill="#D9D9D9"/>
</mask>
<g mask="url(#mask0_980_5791)">
<path d="M2.99999 20V8.7C2.71666 8.51667 2.47932 8.28333 2.28799 8C2.09599 7.71667 1.99999 7.38333 1.99999 7V4C1.99999 3.45 2.19599 2.979 2.58799 2.587C2.97932 2.19567 3.44999 2 3.99999 2H20C20.55 2 21.021 2.19567 21.413 2.587C21.8043 2.979 22 3.45 22 4V7C22 7.38333 21.904 7.71667 21.712 8C21.5207 8.28333 21.2833 8.51667 21 8.7V20C21 20.55 20.8043 21.021 20.413 21.413C20.021 21.8043 19.55 22 19 22H4.99999C4.44999 22 3.97899 21.8043 3.58699 21.413C3.19566 21.021 2.99999 20.55 2.99999 20ZM20 7V4H3.99999V7H20ZM8.99999 14H15V12H8.99999V14Z" fill="currentColor"/>
</g>
</svg>
