<svg width="18" height="18" viewBox="0 0 18 18" fill="none" xmlns="http://www.w3.org/2000/svg">
<mask id="mask0_3862_625" style="mask-type:alpha" maskUnits="userSpaceOnUse" x="0" y="0" width="18" height="18">
<rect width="18" height="18" fill="#D9D9D9"/>
</mask>
<g mask="url(#mask0_3862_625)">
<path d="M11.4937 12.2062C11.3562 12.0437 11.2875 11.8593 11.2875 11.6528C11.2875 11.4467 11.3562 11.275 11.4937 11.1375L12.8812 9.75H7.5C7.2875 9.75 7.1095 9.678 6.966 9.534C6.822 9.3905 6.75 9.2125 6.75 9C6.75 8.7875 6.822 8.60925 6.966 8.46525C7.1095 8.32175 7.2875 8.25 7.5 8.25H12.8812L11.4937 6.8625C11.3438 6.7125 11.2687 6.5345 11.2687 6.3285C11.2687 6.122 11.3438 5.94375 11.4937 5.79375C11.6312 5.64375 11.8033 5.56875 12.0098 5.56875C12.2158 5.56875 12.3875 5.6375 12.525 5.775L15.225 8.475C15.3 8.55 15.3533 8.63125 15.3848 8.71875C15.4158 8.80625 15.4313 8.9 15.4313 9C15.4313 9.1 15.4158 9.19375 15.3848 9.28125C15.3533 9.36875 15.3 9.45 15.225 9.525L12.525 12.225C12.3625 12.3875 12.1845 12.4592 11.991 12.4403C11.797 12.4218 11.6312 12.3438 11.4937 12.2062ZM3.75 15.75C3.3375 15.75 2.98425 15.6033 2.69025 15.3097C2.39675 15.0157 2.25 14.6625 2.25 14.25V3.75C2.25 3.3375 2.39675 2.98425 2.69025 2.69025C2.98425 2.39675 3.3375 2.25 3.75 2.25H8.25C8.4625 2.25 8.64075 2.32175 8.78475 2.46525C8.92825 2.60925 9 2.7875 9 3C9 3.2125 8.92825 3.3905 8.78475 3.534C8.64075 3.678 8.4625 3.75 8.25 3.75H3.75V14.25H8.25C8.4625 14.25 8.64075 14.322 8.78475 14.466C8.92825 14.6095 9 14.7875 9 15C9 15.2125 8.92825 15.3905 8.78475 15.534C8.64075 15.678 8.4625 15.75 8.25 15.75H3.75Z" fill="white"/>
</g>
</svg>
