<svg width="24" height="24" viewBox="0 0 24 24" fill="none" xmlns="http://www.w3.org/2000/svg">
<mask id="mask0_980_5771" style="mask-type:alpha" maskUnits="userSpaceOnUse" x="0" y="0" width="24" height="24">
<rect x="-1.14441e-05" width="24" height="24" fill="#D9D9D9"/>
</mask>
<g mask="url(#mask0_980_5771)">
<path d="M3.99999 21C3.71666 21 3.47932 20.904 3.28799 20.712C3.09599 20.5207 2.99999 20.2833 2.99999 20C2.99999 19.7167 3.09599 19.4793 3.28799 19.288C3.47932 19.096 3.71666 19 3.99999 19H4.99999V4C4.99999 3.71667 5.09566 3.479 5.28699 3.287C5.47899 3.09567 5.71666 3 5.99999 3H13C13.2833 3 13.521 3.09567 13.713 3.287C13.9043 3.479 14 3.71667 14 4H18C18.2833 4 18.5207 4.09567 18.712 4.287C18.904 4.479 19 4.71667 19 5V19H20C20.2833 19 20.5207 19.096 20.712 19.288C20.904 19.4793 21 19.7167 21 20C21 20.2833 20.904 20.5207 20.712 20.712C20.5207 20.904 20.2833 21 20 21H18C17.7167 21 17.4793 20.904 17.288 20.712C17.096 20.5207 17 20.2833 17 20V6H14V20C14 20.2833 13.9043 20.5207 13.713 20.712C13.521 20.904 13.2833 21 13 21H3.99999ZM12 12C12 11.7167 11.9043 11.479 11.713 11.287C11.521 11.0957 11.2833 11 11 11C10.7167 11 10.4793 11.0957 10.288 11.287C10.096 11.479 9.99999 11.7167 9.99999 12C9.99999 12.2833 10.096 12.5207 10.288 12.712C10.4793 12.904 10.7167 13 11 13C11.2833 13 11.521 12.904 11.713 12.712C11.9043 12.5207 12 12.2833 12 12Z" fill="currentColor"/>
</g>
</svg>
