<svg width="20" height="20" viewBox="0 0 20 20" fill="none" xmlns="http://www.w3.org/2000/svg">
<mask id="mask0_3894_129" style="mask-type:alpha" maskUnits="userSpaceOnUse" x="0" y="0" width="20" height="20">
<rect width="20" height="20" fill="#D9D9D9"/>
</mask>
<g mask="url(#mask0_3894_129)">
<path d="M14.1667 12.5C13.5833 12.5 13.0903 12.2986 12.6875 11.8958C12.2847 11.4931 12.0833 11 12.0833 10.4167C12.0833 9.83334 12.2847 9.34029 12.6875 8.93751C13.0903 8.53473 13.5833 8.33334 14.1667 8.33334C14.75 8.33334 15.243 8.53473 15.6458 8.93751C16.0486 9.34029 16.25 9.83334 16.25 10.4167C16.25 11 16.0486 11.4931 15.6458 11.8958C15.243 12.2986 14.75 12.5 14.1667 12.5ZM10.8333 16.6667C10.5972 16.6667 10.3994 16.5867 10.24 16.4267C10.08 16.2672 9.99999 16.0695 9.99999 15.8333V15.5C9.99999 15.1667 10.0867 14.8578 10.26 14.5733C10.4339 14.2883 10.6805 14.0833 11 13.9583C11.5 13.75 12.0175 13.5939 12.5525 13.49C13.0869 13.3856 13.625 13.3333 14.1667 13.3333C14.7083 13.3333 15.2467 13.3856 15.7817 13.49C16.3161 13.5939 16.8333 13.75 17.3333 13.9583C17.6528 14.0833 17.8994 14.2883 18.0733 14.5733C18.2467 14.8578 18.3333 15.1667 18.3333 15.5V15.8333C18.3333 16.0695 18.2533 16.2672 18.0933 16.4267C17.9339 16.5867 17.7361 16.6667 17.5 16.6667H10.8333ZM8.33332 10C7.41666 10 6.63193 9.67362 5.97916 9.02084C5.32638 8.36807 4.99999 7.58334 4.99999 6.66668C4.99999 5.75001 5.32638 4.96529 5.97916 4.31251C6.63193 3.65973 7.41666 3.33334 8.33332 3.33334C9.24999 3.33334 10.0347 3.65973 10.6875 4.31251C11.3403 4.96529 11.6667 5.75001 11.6667 6.66668C11.6667 7.58334 11.3403 8.36807 10.6875 9.02084C10.0347 9.67362 9.24999 10 8.33332 10ZM2.49999 16.6667C2.26388 16.6667 2.0661 16.5867 1.90666 16.4267C1.74666 16.2672 1.66666 16.0695 1.66666 15.8333V14.1667C1.66666 13.8056 1.79166 13.4481 2.04166 13.0942C2.29166 12.7397 2.65971 12.4306 3.14582 12.1667C3.89582 11.7639 4.71527 11.4411 5.60416 11.1983C6.49305 10.955 7.40277 10.8333 8.33332 10.8333C8.70832 10.8333 9.10777 10.8611 9.53166 10.9167C9.95499 10.9722 10.3889 11.0556 10.8333 11.1667V12.25C10.6389 12.3195 10.4722 12.3889 10.3333 12.4583C10.1944 12.5278 10.0486 12.6042 9.89582 12.6875C9.38193 12.9792 8.99305 13.3611 8.72916 13.8333C8.46527 14.3056 8.33332 14.6945 8.33332 15V16.6667H2.49999Z" fill="currentColor"/>
</g>
</svg>
