<svg width="24" height="24" viewBox="0 0 24 24" fill="none" xmlns="http://www.w3.org/2000/svg">
<mask id="mask0_980_5767" style="mask-type:alpha" maskUnits="userSpaceOnUse" x="0" y="0" width="24" height="24">
<rect x="-1.14441e-05" width="24" height="24" fill="#D9D9D9"/>
</mask>
<g mask="url(#mask0_980_5767)">
<path d="M7.99999 17H13C13.2833 17 13.521 16.904 13.713 16.712C13.9043 16.5207 14 16.2833 14 16C14 15.7167 13.9043 15.479 13.713 15.287C13.521 15.0957 13.2833 15 13 15H7.99999C7.71666 15 7.47899 15.0957 7.28699 15.287C7.09566 15.479 6.99999 15.7167 6.99999 16C6.99999 16.2833 7.09566 16.5207 7.28699 16.712C7.47899 16.904 7.71666 17 7.99999 17ZM7.99999 13H16C16.2833 13 16.5207 12.904 16.712 12.712C16.904 12.5207 17 12.2833 17 12C17 11.7167 16.904 11.479 16.712 11.287C16.5207 11.0957 16.2833 11 16 11H7.99999C7.71666 11 7.47899 11.0957 7.28699 11.287C7.09566 11.479 6.99999 11.7167 6.99999 12C6.99999 12.2833 7.09566 12.5207 7.28699 12.712C7.47899 12.904 7.71666 13 7.99999 13ZM7.99999 9H16C16.2833 9 16.5207 8.904 16.712 8.712C16.904 8.52067 17 8.28333 17 8C17 7.71667 16.904 7.479 16.712 7.287C16.5207 7.09567 16.2833 7 16 7H7.99999C7.71666 7 7.47899 7.09567 7.28699 7.287C7.09566 7.479 6.99999 7.71667 6.99999 8C6.99999 8.28333 7.09566 8.52067 7.28699 8.712C7.47899 8.904 7.71666 9 7.99999 9ZM4.99999 21C4.44999 21 3.97899 20.8043 3.58699 20.413C3.19566 20.021 2.99999 19.55 2.99999 19V5C2.99999 4.45 3.19566 3.979 3.58699 3.587C3.97899 3.19567 4.44999 3 4.99999 3H9.19999C9.41666 2.4 9.77932 1.91667 10.288 1.55C10.796 1.18333 11.3667 1 12 1C12.6333 1 13.2043 1.18333 13.713 1.55C14.221 1.91667 14.5833 2.4 14.8 3H19C19.55 3 20.021 3.19567 20.413 3.587C20.8043 3.979 21 4.45 21 5V19C21 19.55 20.8043 20.021 20.413 20.413C20.021 20.8043 19.55 21 19 21H4.99999ZM12 4.25C12.2167 4.25 12.396 4.179 12.538 4.037C12.6793 3.89567 12.75 3.71667 12.75 3.5C12.75 3.28333 12.6793 3.104 12.538 2.962C12.396 2.82067 12.2167 2.75 12 2.75C11.7833 2.75 11.6043 2.82067 11.463 2.962C11.321 3.104 11.25 3.28333 11.25 3.5C11.25 3.71667 11.321 3.89567 11.463 4.037C11.6043 4.179 11.7833 4.25 12 4.25Z" fill="currentColor"/>
</g>
</svg>
