<svg width="20" height="20" viewBox="0 0 20 20" fill="none" xmlns="http://www.w3.org/2000/svg">
<mask id="mask0_17803_24227" style="mask-type:alpha" maskUnits="userSpaceOnUse" x="0" y="0" width="20" height="20">
<rect width="20" height="20" fill="#D9D9D9"/>
</mask>
<g mask="url(#mask0_17803_24227)">
<path d="M9.99984 11.667C10.2359 11.667 10.4339 11.5871 10.5936 11.4274C10.7533 11.2677 10.8332 11.0698 10.8332 10.8337V9.16699H12.4998C12.7359 9.16699 12.9339 9.08713 13.0936 8.92741C13.2533 8.76769 13.3332 8.56977 13.3332 8.33366C13.3332 8.09755 13.2533 7.89963 13.0936 7.73991C12.9339 7.58019 12.7359 7.50033 12.4998 7.50033H10.8332V5.83366C10.8332 5.59755 10.7533 5.39963 10.5936 5.23991C10.4339 5.08019 10.2359 5.00033 9.99984 5.00033C9.76373 5.00033 9.56581 5.08019 9.40609 5.23991C9.24637 5.39963 9.1665 5.59755 9.1665 5.83366V7.50033H7.49984C7.26373 7.50033 7.06581 7.58019 6.90609 7.73991C6.74637 7.89963 6.6665 8.09755 6.6665 8.33366C6.6665 8.56977 6.74637 8.76769 6.90609 8.92741C7.06581 9.08713 7.26373 9.16699 7.49984 9.16699H9.1665V10.8337C9.1665 11.0698 9.24637 11.2677 9.40609 11.4274C9.56581 11.5871 9.76373 11.667 9.99984 11.667ZM1.6665 16.3128V3.33366C1.6665 2.87533 1.8297 2.48296 2.15609 2.15658C2.48248 1.83019 2.87484 1.66699 3.33317 1.66699H16.6665C17.1248 1.66699 17.5172 1.83019 17.8436 2.15658C18.17 2.48296 18.3332 2.87533 18.3332 3.33366V13.3337C18.3332 13.792 18.17 14.1844 17.8436 14.5107C17.5172 14.8371 17.1248 15.0003 16.6665 15.0003H4.99984L3.08317 16.917C2.81928 17.1809 2.5172 17.2399 2.17692 17.0941C1.83664 16.9482 1.6665 16.6878 1.6665 16.3128Z" fill="currentColor"/>
</g>
</svg>
